<?xml version="1.0" encoding="UTF-8"?>
<svg version="1.1" xmlns="http://www.w3.org/2000/svg" width="273" height="232">
<path d="M0 0 C11.22 0 22.44 0 34 0 C34.0093457 3.94106689 34.01869141 7.88213379 34.02832031 11.94262695 C34.06212908 24.98253423 34.11750029 38.02227579 34.18390274 51.06205463 C34.22362784 58.96593354 34.25605334 66.86971382 34.27099609 74.77368164 C34.28404663 81.66679331 34.31109743 88.55968739 34.35461307 95.45267648 C34.37715197 99.0988841 34.39291527 102.7448241 34.39188385 106.39110756 C34.39099272 110.47238751 34.42137304 114.55288421 34.45410156 118.6340332 C34.4490712 119.82878265 34.44404083 121.0235321 34.43885803 122.25448608 C34.54695215 131.00118988 36.18377874 138.43577934 40.8125 145.9375 C46.90916904 151.68578796 53.22546745 153.29080157 61.39453125 153.23046875 C65.33910729 152.88154823 68.38034802 151.58756666 72 150 C72.99 149.67 73.98 149.34 75 149 C75 148.34 75 147.68 75 147 C75.66 147 76.32 147 77 147 C77.268125 146.319375 77.53625 145.63875 77.8125 144.9375 C78.68704293 142.77415695 79.61127679 140.63073998 80.5625 138.5 C82.5226611 133.72743384 83.12347211 129.60090914 83.15821838 124.46342468 C83.1680072 123.36271133 83.17779602 122.26199799 83.18788147 121.12792969 C83.19363693 119.93031006 83.1993924 118.73269043 83.20532227 117.4987793 C83.21522186 116.23008499 83.22512146 114.96139069 83.23532104 113.6542511 C83.26229379 110.18360345 83.28334451 106.71294231 83.30332303 103.2422483 C83.32522981 99.61206098 83.35259549 95.98191489 83.37937927 92.35176086 C83.42924283 85.48125231 83.4742051 78.61072079 83.51740164 71.74016744 C83.56682825 63.91671486 83.62172623 56.09330367 83.67708123 48.26989114 C83.79080397 32.17996424 83.89694182 16.08999929 84 0 C95.22 0 106.44 0 118 0 C118.0679576 16.93433763 118.12312098 33.86855724 118.15543652 50.80299377 C118.17084602 58.66754062 118.191821 66.53199617 118.22631836 74.39648438 C118.25640339 81.2584016 118.27561788 88.12025264 118.28226548 94.982234 C118.28614573 98.60905856 118.29513809 102.23569391 118.31719017 105.86245728 C118.53560454 143.24991494 118.53560454 143.24991494 111.375 156.375 C111.02945068 157.03363037 110.68390137 157.69226074 110.32788086 158.37084961 C103.2650343 171.28590467 91.89540133 181.11832611 78 186 C61.76309015 190.58714453 45.40604411 188.81652957 30.375 181.375 C14.42949255 172.09086174 5.72504432 158.37924026 1 141 C0.14567506 137.34713224 -0.12371656 133.98503548 -0.12025452 130.23564148 C-0.12162918 129.08444321 -0.12300385 127.93324493 -0.12442017 126.74716187 C-0.11902725 124.86657578 -0.11902725 124.86657578 -0.11352539 122.94799805 C-0.11324316 121.60737612 -0.11340196 120.26675404 -0.1139679 118.9261322 C-0.11425445 115.29429911 -0.10838055 111.66249914 -0.10139394 108.03067374 C-0.09513689 104.23234968 -0.09455474 100.43402483 -0.09336853 96.63569641 C-0.09026215 89.44641425 -0.0820581 82.25714732 -0.07201904 75.06787187 C-0.06083639 66.88169854 -0.05534203 58.69552448 -0.05032361 50.50934541 C-0.03987491 33.67288662 -0.02153804 16.83644881 0 0 Z " fill="#090909" transform="translate(20,26)"/>
<path d="M0 0 C1.21257566 3.63772699 1.20031674 7.01801776 1.23828125 10.80859375 C1.246353 11.57172379 1.25442474 12.33485382 1.26274109 13.12110901 C1.27655867 14.73411806 1.28729121 16.34715607 1.29516602 17.96020508 C1.31241396 20.42520315 1.35632197 22.88887143 1.40039062 25.35351562 C1.41051521 26.92186516 1.41903205 28.49022606 1.42578125 30.05859375 C1.44328934 30.79411972 1.46079742 31.52964569 1.47883606 32.28746033 C1.46503082 35.54694724 1.20292747 37.6738354 -0.5324707 40.46313477 C-3.93595612 42.58294684 -7.01590848 42.57425966 -10.90625 42.53125 C-11.66796509 42.5350769 -12.42968018 42.53890381 -13.21447754 42.54284668 C-14.82154668 42.54556313 -16.42866024 42.53822044 -18.03564453 42.52148438 C-20.49221587 42.50006786 -22.94586311 42.52129178 -25.40234375 42.546875 C-26.96615227 42.54423167 -28.52995898 42.53910658 -30.09375 42.53125 C-30.82613892 42.53934692 -31.55852783 42.54744385 -32.31311035 42.55578613 C-35.56473194 42.49615307 -37.69115117 42.19514466 -40.4609375 40.44506836 C-42.55385409 37.12010649 -42.57487137 34.158585 -42.53125 30.34765625 C-42.5350769 29.61050888 -42.53890381 28.87336151 -42.54284668 28.11387634 C-42.54556302 26.55808137 -42.53822106 25.00224052 -42.52148438 23.4465332 C-42.50009767 21.0733375 -42.52127574 18.70317905 -42.546875 16.33007812 C-42.54423107 14.81509752 -42.53910474 13.3001188 -42.53125 11.78515625 C-42.53934692 11.0798024 -42.54744385 10.37444855 -42.55578613 9.64772034 C-42.49207865 6.27547246 -42.0260176 4.04873087 -40.43139648 1.06201172 C-37.23948249 -1.6449775 -34.58176527 -1.76362858 -30.56640625 -1.77734375 C-29.49397926 -1.80714073 -29.49397926 -1.80714073 -28.39988708 -1.83753967 C-26.89142368 -1.87464054 -25.38263086 -1.89997955 -23.8737793 -1.91430664 C-21.57265392 -1.93739811 -19.27484257 -1.99776187 -16.97460938 -2.06445312 C-15.50525383 -2.09594912 -14.03585079 -2.12531651 -12.56640625 -2.15234375 C-11.88292618 -2.16885483 -11.19944611 -2.18536591 -10.49525452 -2.20237732 C-6.57109668 -2.22682528 -3.44971085 -1.94471958 0 0 Z " fill="#111111" transform="translate(239,27)"/>
<path d="M0 0 C0.8098938 -0.00145523 1.6197876 -0.00291046 2.45422363 -0.00440979 C4.16564534 -0.00275064 5.87708193 0.00881263 7.58837891 0.02954102 C10.20930295 0.05848941 12.82820376 0.05015292 15.44921875 0.03710938 C17.11198901 0.04334707 18.77475287 0.05173825 20.4375 0.0625 C21.22193481 0.05956436 22.00636963 0.05662872 22.8145752 0.05360413 C25.70009494 0.10368284 28.11428477 0.18470482 30.70922852 1.52148438 C32.34459506 4.72023761 32.16591886 8.01167599 32.15234375 11.5234375 C32.1575856 12.30876358 32.16282745 13.09408966 32.16822815 13.9032135 C32.17464822 15.56331195 32.1733115 17.2234559 32.16479492 18.88354492 C32.15629141 21.4212365 32.18503235 23.95667189 32.21679688 26.49414062 C32.21840919 28.10807224 32.21783077 29.72200784 32.21484375 31.3359375 C32.23169472 32.47203712 32.23169472 32.47203712 32.24888611 33.63108826 C32.20530762 36.93287773 31.93686699 39.14457718 30.18188477 41.97290039 C26.77938489 44.07699363 23.69516764 44.07026857 19.8125 44.02734375 C19.05078491 44.03117065 18.28906982 44.03499756 17.50427246 44.03894043 C15.89720332 44.04165688 14.29008976 44.03431419 12.68310547 44.01757812 C10.22653413 43.99616161 7.77288689 44.01738553 5.31640625 44.04296875 C3.75259773 44.04032542 2.18879102 44.03520033 0.625 44.02734375 C-0.10738892 44.03544067 -0.83977783 44.0435376 -1.59436035 44.05187988 C-4.83657294 43.99241937 -6.97459044 43.68770658 -9.74438477 41.95703125 C-11.86935988 38.55437055 -11.83700691 35.47952905 -11.77734375 31.58984375 C-11.77879898 30.82812866 -11.78025421 30.06641357 -11.78175354 29.28161621 C-11.78009689 27.67452155 -11.7685616 26.06741065 -11.74780273 24.46044922 C-11.71884551 22.00419549 -11.72719746 19.55010106 -11.74023438 17.09375 C-11.73399651 15.52993745 -11.72560518 13.96613171 -11.71484375 12.40234375 C-11.71924721 11.30376038 -11.71924721 11.30376038 -11.72373962 10.1829834 C-11.66917911 7.22566911 -11.39719765 4.77899479 -10.27172852 2.03295898 C-7.13262748 -0.39076738 -3.80089655 -0.05443306 0 0 Z " fill="#101010" transform="translate(208.28125,122.50390625)"/>
<path d="M0 0 C1.49749188 -0.01152916 2.99494237 -0.03199616 4.4921875 -0.06152344 C6.65962552 -0.10426098 8.82584497 -0.12037508 10.99365234 -0.13061523 C12.28899902 -0.14519775 13.5843457 -0.15978027 14.91894531 -0.17480469 C19.07452141 0.39005084 20.68310785 1.07276807 23.37646484 4.29516602 C23.86053539 7.21514873 24.03327246 9.54229672 23.97021484 12.45532227 C23.97025513 13.24160507 23.97029541 14.02788788 23.97033691 14.83799744 C23.9649859 16.49640925 23.94742066 18.15482077 23.91845703 19.81298828 C23.87654587 22.35275593 23.87739306 24.88987601 23.88427734 27.42993164 C23.87378629 29.04258029 23.86084864 30.65521527 23.84521484 32.26782227 C23.84501343 33.02724625 23.84481201 33.78667023 23.84460449 34.56910706 C23.78122013 37.38784565 23.6624554 39.73636641 22.36474609 42.27197266 C19.09444171 43.95491048 15.68845873 43.72142057 12.09521484 43.69360352 C10.88037415 43.69790878 10.88037415 43.69790878 9.64099121 43.70230103 C7.929599 43.70434144 6.21818346 43.69881311 4.50683594 43.6862793 C1.88602595 43.67022459 -0.73324193 43.68612795 -3.35400391 43.70532227 C-5.01676773 43.70333983 -6.67953059 43.69949614 -8.34228516 43.69360352 C-9.12671997 43.69967621 -9.91115479 43.7057489 -10.71936035 43.71200562 C-13.6058658 43.67465748 -16.01729307 43.60578895 -18.61621094 42.27416992 C-20.2514784 39.06149952 -20.05002764 35.75559072 -20.02197266 32.23266602 C-20.02627792 31.05111938 -20.02627792 31.05111938 -20.03067017 29.84570312 C-20.03271037 28.18138917 -20.02718348 26.51705121 -20.01464844 24.8527832 C-19.99859325 22.30438655 -20.0144976 19.75757581 -20.03369141 17.20922852 C-20.03170897 15.59203751 -20.02786527 13.9748475 -20.02197266 12.35766602 C-20.02804535 11.59510498 -20.03411804 10.83254395 -20.04037476 10.046875 C-19.97055958 4.79891524 -19.97055958 4.79891524 -18.28613281 2.35375977 C-12.97881869 -1.02546403 -6.07080757 0.03258155 0 0 Z " fill="#0F0F0F" transform="translate(216.62353515625,73.704833984375)"/>
<path d="M0 0 C1.18366905 -0.00855011 1.18366905 -0.00855011 2.39125061 -0.01727295 C4.06151996 -0.02672425 5.73180796 -0.03325745 7.40209961 -0.03710938 C9.95915137 -0.04682369 12.5154023 -0.07784832 15.07226562 -0.109375 C16.69400564 -0.11590422 18.3157514 -0.12115501 19.9375 -0.125 C20.70319809 -0.1373468 21.46889618 -0.1496936 22.25779724 -0.16241455 C25.10503737 -0.15044807 27.45121212 -0.09782583 30.01196289 1.22192383 C31.66350367 4.41978913 31.50297308 7.71201265 31.50390625 11.23046875 C31.51532654 12.40845787 31.51532654 12.40845787 31.52697754 13.61024475 C31.53777714 15.2703229 31.54063218 16.93046899 31.53613281 18.59057617 C31.53516086 21.12859634 31.57676915 23.66358873 31.62109375 26.20117188 C31.62630122 27.81509787 31.62898894 29.42903436 31.62890625 31.04296875 C31.65349915 32.17906837 31.65349915 32.17906837 31.67858887 33.33811951 C31.63095669 36.9763361 31.32709905 38.85351108 28.96875 41.67773438 C25.41196729 43.52716666 22.42522075 43.79811861 18.50390625 43.76953125 C17.79036987 43.77572983 17.0768335 43.78192841 16.3416748 43.78831482 C14.83896239 43.79539204 13.33617122 43.79227555 11.83349609 43.77954102 C9.54116981 43.76566141 7.25292015 43.79978107 4.9609375 43.83789062 C3.49609276 43.83884185 2.03124293 43.83698282 0.56640625 43.83203125 C-0.11393677 43.84528946 -0.79427979 43.85854767 -1.49523926 43.87220764 C-5.1100574 43.80187681 -6.92473772 43.23135431 -9.90063477 41.13671875 C-12.41899548 37.55769778 -12.64412357 34.85979796 -12.5234375 30.63671875 C-12.52110611 29.9208107 -12.51877472 29.20490265 -12.51637268 28.46730042 C-12.50666612 26.96025605 -12.48494979 25.45324649 -12.4519043 23.9465332 C-12.40241935 21.64414268 -12.39041655 19.34389049 -12.38476562 17.04101562 C-12.37068055 15.57289401 -12.35447645 14.10479088 -12.3359375 12.63671875 C-12.3305748 11.95121445 -12.3252121 11.26571014 -12.31968689 10.55943298 C-12.23090348 6.98172732 -12.02679721 4.19348295 -9.96484375 1.203125 C-6.82133165 -0.36863105 -3.45240858 0.01911149 0 0 Z " fill="#090909" transform="translate(159.96484375,122.796875)"/>
<path d="M0 0 C1.49749188 -0.01152916 2.99494237 -0.03199616 4.4921875 -0.06152344 C6.65962552 -0.10426098 8.82584497 -0.12037508 10.99365234 -0.13061523 C12.28899902 -0.14519775 13.5843457 -0.15978027 14.91894531 -0.17480469 C19.06633142 0.3889376 20.67953901 1.08911692 23.37646484 4.29516602 C23.86146259 7.13586712 24.03363947 9.36818957 23.97021484 12.20141602 C23.97025513 12.9631311 23.97029541 13.72484619 23.97033691 14.50964355 C23.96498609 16.11678335 23.94742156 17.72392287 23.91845703 19.33081055 C23.87660071 21.78719251 23.877389 24.24083131 23.88427734 26.69750977 C23.87378405 28.26133085 23.86084518 29.82513784 23.84521484 31.38891602 C23.84501343 32.12130493 23.84481201 32.85369385 23.84460449 33.60827637 C23.77606036 36.56990337 23.49427264 39.01303187 22.34887695 41.75610352 C19.28206684 44.14911885 16.07769696 43.86616982 12.34912109 43.82641602 C11.56379501 43.83024292 10.77846893 43.83406982 9.96934509 43.8380127 C8.30922158 43.84073328 6.6490553 43.83336168 4.98901367 43.81665039 C2.45117217 43.79526886 -0.08382948 43.81642954 -2.62158203 43.84204102 C-4.23552056 43.8393972 -5.84945733 43.83427111 -7.46337891 43.82641602 C-8.22077866 43.83451294 -8.97817841 43.84260986 -9.75852966 43.85095215 C-13.06636174 43.79227248 -15.27631529 43.51264862 -18.10253906 41.74243164 C-20.17896604 38.40148396 -20.17995501 35.42310976 -20.11962891 31.60766602 C-20.12108414 30.86814697 -20.12253937 30.12862793 -20.1240387 29.36669922 C-20.1223823 27.80668184 -20.11084981 26.24664768 -20.09008789 24.68676758 C-20.06112937 22.30292137 -20.06948309 19.92130004 -20.08251953 17.53735352 C-20.07628164 16.01911357 -20.0678903 14.50088063 -20.05712891 12.98266602 C-20.06006454 12.27215088 -20.06300018 11.56163574 -20.06602478 10.82958984 C-20.00756419 7.75315627 -19.78711167 5.59042058 -18.28393555 2.87719727 C-13.74136809 -1.45096582 -5.90807444 0.03170818 0 0 Z " fill="#101010" transform="translate(167.62353515625,73.704833984375)"/>
<path d="M0 0 C0.76171509 -0.00241196 1.52343018 -0.00482391 2.30822754 -0.00730896 C3.91533627 -0.00633142 5.52247906 0.00704031 7.12939453 0.03198242 C9.58612708 0.06629977 12.03926255 0.0526393 14.49609375 0.03320312 C16.05991111 0.04010185 17.6237192 0.04977448 19.1875 0.0625 C19.91988892 0.05754013 20.65227783 0.05258026 21.40686035 0.04747009 C24.64512038 0.12206088 26.79022572 0.43881212 29.5546875 2.17016602 C31.68136071 5.56764792 31.6679841 8.6471265 31.625 12.53515625 C31.6288269 13.29687134 31.63265381 14.05858643 31.63659668 14.84338379 C31.63931313 16.45045293 31.63197044 18.05756649 31.61523438 19.66455078 C31.59381786 22.12112212 31.61504178 24.57476936 31.640625 27.03125 C31.63798167 28.59505852 31.63285658 30.15886523 31.625 31.72265625 C31.63309692 32.45504517 31.64119385 33.18743408 31.64953613 33.9420166 C31.59008677 37.18362118 31.28619343 39.32119213 29.5546875 42.08984375 C26.15577655 44.21551187 23.07635195 44.20314944 19.1875 44.16015625 C18.42578491 44.16398315 17.66406982 44.16781006 16.87927246 44.17175293 C15.27220332 44.17446938 13.66508976 44.16712669 12.05810547 44.15039062 C9.60153413 44.12897411 7.14788689 44.15019803 4.69140625 44.17578125 C3.12759773 44.17313792 1.56379102 44.16801283 0 44.16015625 C-0.73238892 44.16825317 -1.46477783 44.1763501 -2.21936035 44.18469238 C-5.47098194 44.12505932 -7.59740117 43.82405091 -10.3671875 42.07397461 C-12.46010409 38.74901274 -12.48112137 35.78749125 -12.4375 31.9765625 C-12.4413269 31.23941513 -12.44515381 30.50226776 -12.44909668 29.74278259 C-12.45181302 28.18698762 -12.44447106 26.63114677 -12.42773438 25.07543945 C-12.40634767 22.70224375 -12.42752574 20.3320853 -12.453125 17.95898438 C-12.45048107 16.44400377 -12.44535474 14.92902505 -12.4375 13.4140625 C-12.44559692 12.70870865 -12.45369385 12.0033548 -12.46203613 11.27662659 C-12.39862686 7.92016426 -11.92641297 5.66751783 -10.3671875 2.68164062 C-7.02917445 -0.10268614 -4.16134456 -0.07533153 0 0 Z " fill="#101011" transform="translate(159.90625,25.37109375)"/>
<path d="M0 0 C0.76171509 -0.0038269 1.52343018 -0.00765381 2.30822754 -0.01159668 C3.91529668 -0.01431313 5.52241024 -0.00697044 7.12939453 0.00976562 C9.58596587 0.03118214 12.03961311 0.00995822 14.49609375 -0.015625 C16.05990227 -0.01298167 17.62370898 -0.00785658 19.1875 0 C20.28608337 -0.01214539 20.28608337 -0.01214539 21.40686035 -0.02453613 C24.6476909 0.03489903 26.78724902 0.34000967 29.55688477 2.06811523 C31.68625904 5.48086457 31.64941468 8.57234889 31.58984375 12.47265625 C31.59129898 13.23674301 31.59275421 14.00082977 31.59425354 14.78807068 C31.59259707 16.3993614 31.58106383 18.01066835 31.56030273 19.62182617 C31.53130511 22.089061 31.53970572 24.55415184 31.55273438 27.02148438 C31.54649786 28.58855211 31.53810759 30.15561307 31.52734375 31.72265625 C31.53027939 32.46020645 31.53321503 33.19775665 31.53623962 33.95765686 C31.44270214 39.02817575 31.44270214 39.02817575 29.74389648 41.47729492 C23.86588657 45.23160307 14.11050234 43.75286644 7.46875 43.78125 C6.25445312 43.801875 5.04015625 43.8225 3.7890625 43.84375 C2.03335938 43.85148437 2.03335938 43.85148437 0.2421875 43.859375 C-0.81822754 43.8687207 -1.87864258 43.87806641 -2.97119141 43.88769531 C-6.61459571 43.44522565 -9.29297674 42.14452326 -11.90625 39.53125 C-12.04440375 36.98445706 -12.11935685 34.46669211 -12.14453125 31.91796875 C-12.152603 31.15200882 -12.16067474 30.38604889 -12.16899109 29.59687805 C-12.1828475 27.97191644 -12.19356267 26.34692554 -12.20141602 24.72192383 C-12.21860851 22.23918185 -12.26247529 19.75777849 -12.30664062 17.27539062 C-12.31676908 15.69792648 -12.32528471 14.12045099 -12.33203125 12.54296875 C-12.34953934 11.80116867 -12.36704742 11.05936859 -12.38508606 10.29508972 C-12.37134079 7.01943423 -12.11585135 4.86874257 -10.3737793 2.0637207 C-6.96970054 -0.05039846 -3.88839749 -0.04298817 0 0 Z " fill="#0E0E0E" transform="translate(208.90625,170.46875)"/>
<path d="M0 0 C0.76171509 -0.00241196 1.52343018 -0.00482391 2.30822754 -0.00730896 C3.91533627 -0.00633142 5.52247906 0.00704031 7.12939453 0.03198242 C9.58612708 0.06629977 12.03926255 0.0526393 14.49609375 0.03320312 C16.05991111 0.04010185 17.6237192 0.04977448 19.1875 0.0625 C19.91988892 0.05754013 20.65227783 0.05258026 21.40686035 0.04747009 C24.64434314 0.12204298 26.79144012 0.44001127 29.55688477 2.16796875 C31.6872634 5.57928196 31.64940199 8.67083599 31.58984375 12.5703125 C31.59129898 13.33439926 31.59275421 14.09848602 31.59425354 14.88572693 C31.59259707 16.49701765 31.58106383 18.1083246 31.56030273 19.71948242 C31.53130511 22.18671725 31.53970572 24.65180809 31.55273438 27.11914062 C31.54649786 28.68620836 31.53810759 30.25326932 31.52734375 31.8203125 C31.53027939 32.5578627 31.53321503 33.2954129 31.53623962 34.05531311 C31.48461565 36.85376684 31.39983175 39.08799951 30.00415039 41.55444336 C23.70972234 45.09460666 14.87319692 43.70011983 7.91308594 43.49682617 C5.83524423 43.44117845 3.7580605 43.41291128 1.6796875 43.38476562 C-0.28871094 43.3296582 -0.28871094 43.3296582 -2.296875 43.2734375 C-3.49344727 43.24612549 -4.69001953 43.21881348 -5.92285156 43.19067383 C-8.90625 42.62890625 -8.90625 42.62890625 -10.79223633 41.05322266 C-12.29952104 37.77306986 -12.35501456 34.73786501 -12.33984375 31.1953125 C-12.3450856 30.48036118 -12.35032745 29.76540985 -12.35572815 29.02879333 C-12.36213716 27.52010392 -12.36082581 26.01136446 -12.35229492 24.50268555 C-12.34378935 22.20205087 -12.3725487 19.90390486 -12.40429688 17.60351562 C-12.40590928 16.13411532 -12.4053306 14.66471065 -12.40234375 13.1953125 C-12.41357773 12.51183243 -12.42481171 11.82835236 -12.43638611 11.12416077 C-12.38842875 7.81453651 -11.91066778 5.63733897 -10.36938477 2.6953125 C-7.03177752 -0.104718 -4.16944678 -0.0754782 0 0 Z " fill="#0F0F0F" transform="translate(159.90625,170.37109375)"/>
<path d="M0 0 C2.31 0 4.62 0 7 0 C7.00054477 0.71800309 7.00108953 1.43600618 7.00165081 2.17576694 C7.01666635 19.70609309 7.059305 37.23613871 7.13209057 54.76632023 C7.16663515 63.24406326 7.19208219 71.72164547 7.19555664 80.19946289 C7.19861128 87.59510556 7.21930155 94.99046105 7.26052457 102.38599294 C7.28172139 106.29618771 7.29452467 110.20597558 7.28615379 114.1162281 C7.278528 117.80926803 7.29477509 121.50148935 7.32806015 125.19437981 C7.34002121 127.17028635 7.32781702 129.14629494 7.31443787 131.12219238 C7.51904812 147.38971884 13.49785677 161.25219632 24.5625 173.1875 C31.36990616 179.74394188 39.58701858 183.85567418 48 188 C48 188.66 48 189.32 48 190 C35.41299636 189.95044487 26.15503294 184.89424887 17.1796875 176.27734375 C3.98715197 162.4937448 -0.49787354 146.3376687 -0.34057617 127.60253906 C-0.3397277 126.20177224 -0.34020932 124.80100409 -0.34190369 123.40023804 C-0.34275651 119.63648576 -0.32524797 115.87302644 -0.30418181 112.10934162 C-0.28529457 108.16159403 -0.28365516 104.21383805 -0.28010559 100.26605225 C-0.27082023 92.80778513 -0.24625453 85.34965159 -0.21605712 77.89144301 C-0.18240316 69.39315912 -0.16599959 60.8948685 -0.15097082 52.39653444 C-0.11970139 34.93094599 -0.06700999 17.46548717 0 0 Z " fill="#3C3C3C" transform="translate(7,26)"/>
<path d="M0 0 C0.66 0 1.32 0 2 0 C2.30292969 0.74765625 2.60585937 1.4953125 2.91796875 2.265625 C6.54910544 10.840373 6.54910544 10.840373 14.09375 15.890625 C16.04317264 16.64568307 18.02012003 17.32885425 20 18 C20 18.99 20 19.98 20 21 C19.33613281 21.21914063 18.67226563 21.43828125 17.98828125 21.6640625 C11.93518311 23.83787585 8.47185408 25.52919964 5 31 C3.82624306 33.64333879 2.90286531 36.24388485 2 39 C1.34 39 0.68 39 0 39 C-0.21914062 38.33613281 -0.43828125 37.67226563 -0.6640625 36.98828125 C-3.1366636 30.10319282 -5.61071584 26.17668265 -12.38671875 22.81640625 C-14.5735796 21.82425117 -16.76892451 20.88747225 -19 20 C-17.60717526 17.21435052 -16.08333957 17.1510515 -13.1875 16.125 C-8.07330281 14.11715018 -5.21581322 12.69519434 -2.8828125 7.5234375 C-1.86542885 5.03260167 -0.90853274 2.53229339 0 0 Z " fill="#272727" transform="translate(250,1)"/>
<path d="M0 0 C0.79622772 0.00141495 1.59245544 0.0028299 2.41281128 0.00428772 C4.9601413 0.0098928 7.50738397 0.02244611 10.0546875 0.03515625 C11.77994665 0.0401706 13.50520717 0.04473362 15.23046875 0.04882812 C19.46357541 0.05986388 23.69661664 0.07713189 27.9296875 0.09765625 C27.9296875 0.42765625 27.9296875 0.75765625 27.9296875 1.09765625 C26.87990723 1.11747559 25.83012695 1.13729492 24.74853516 1.15771484 C20.86075489 1.23367823 16.97335347 1.32240923 13.0859375 1.41503906 C11.40209421 1.45336729 9.71816795 1.48821337 8.03417969 1.51953125 C5.61623444 1.56509912 3.19886222 1.62310548 0.78125 1.68359375 C-0.35163956 1.70092056 -0.35163956 1.70092056 -1.50741577 1.71859741 C-5.74856448 1.70095691 -5.74856448 1.70095691 -9.0703125 4.09765625 C-9.31587621 6.81765982 -9.44387736 9.44339882 -9.484375 12.16796875 C-9.50374115 12.96419647 -9.5231073 13.76042419 -9.5430603 14.58078003 C-9.60291724 17.12796259 -9.64926529 19.6751902 -9.6953125 22.22265625 C-9.73348671 23.94793655 -9.77253811 25.67319768 -9.8125 27.3984375 C-9.90862359 31.63135501 -9.99263158 35.86436174 -10.0703125 40.09765625 C-12.52083022 37.64713853 -12.31563594 36.28806631 -12.34820557 32.94229126 C-12.3441571 32.24332733 -12.34010864 31.5443634 -12.3359375 30.82421875 C-12.33785095 30.10406586 -12.3397644 29.38391296 -12.34173584 28.64193726 C-12.3430977 27.11708223 -12.33940114 25.59221561 -12.33105469 24.06738281 C-12.32038584 21.73866513 -12.33093331 19.41072437 -12.34375 17.08203125 C-12.34242779 15.60025872 -12.33986414 14.11848667 -12.3359375 12.63671875 C-12.33998596 11.94180328 -12.34403442 11.24688782 -12.34820557 10.53091431 C-12.31333136 6.91352345 -12.17243703 4.11564033 -10.0703125 1.09765625 C-6.89740537 -0.48879732 -3.48205866 -0.02312588 0 0 Z " fill="#79797A" transform="translate(160.0703125,122.90234375)"/>
<path d="M0 0 C0.91007813 0.00902344 1.82015625 0.01804687 2.7578125 0.02734375 C3.45648438 0.03894531 4.15515625 0.05054687 4.875 0.0625 C4.875 0.3925 4.875 0.7225 4.875 1.0625 C4.27171875 1.11148438 3.6684375 1.16046875 3.046875 1.2109375 C1.84804687 1.32308594 1.84804687 1.32308594 0.625 1.4375 C-0.55835938 1.54191406 -0.55835938 1.54191406 -1.765625 1.6484375 C-4.210877 2.07757113 -5.97336903 2.84850638 -8.125 4.0625 C-7.795 3.0725 -7.465 2.0825 -7.125 1.0625 C-4.60024538 -0.19987731 -2.81299534 -0.03606404 0 0 Z " fill="#737576" transform="translate(157.125,122.9375)"/>
</svg>
