<?xml version="1.0" encoding="UTF-8"?>
<svg version="1.1" xmlns="http://www.w3.org/2000/svg" width="150" height="124">
<path d="M0 0 C49.5 0 99 0 150 0 C150 40.92 150 81.84 150 124 C100.5 124 51 124 0 124 C0 83.08 0 42.16 0 0 Z " fill="#050505" transform="translate(0,0)"/>
<path d="M0 0 C5.94 0 11.88 0 18 0 C18.0093457 2.20502197 18.01869141 4.41004395 18.02832031 6.68188477 C18.06214741 13.98226538 18.1177281 21.28236503 18.18390274 28.58252048 C18.22334546 33.00693264 18.25554955 37.43114673 18.27099609 41.85571289 C18.28618397 46.12886805 18.32066682 50.40147857 18.36830902 54.67439079 C18.38310095 56.3013427 18.39103976 57.92837238 18.39188385 59.55539131 C18.39426199 61.84163013 18.42140626 64.12637403 18.45410156 66.41235352 C18.46298401 67.71141129 18.47186646 69.01046906 18.48101807 70.34889221 C19.1229591 74.86503383 20.47056533 77.229437 23 81 C26.95517181 83.84522241 31.3226025 83.38100118 36 83 C39.38800816 82.48474579 39.38800816 82.48474579 42 81 C43.40257876 78.61880754 43.40257876 78.61880754 44 76 C44.495 74.515 44.495 74.515 45 73 C45.11846992 70.6547434 45.17703219 68.30632847 45.20532227 65.95825195 C45.21522186 65.24580322 45.22512146 64.53335449 45.23532104 63.79931641 C45.266895 61.44567176 45.29167719 59.09200694 45.31640625 56.73828125 C45.33697933 55.10588559 45.35797589 53.47349521 45.37937927 51.84111023 C45.43456344 47.54544354 45.48398883 43.24972906 45.53222656 38.95397949 C45.58246827 34.57018788 45.6381404 30.18646562 45.69335938 25.80273438 C45.80089627 17.20187998 45.90184931 8.60096664 46 0 C51.94 0 57.88 0 64 0 C64.06799731 9.4756862 64.12294328 18.95120819 64.15543652 28.42708397 C64.17103804 32.82794698 64.19217452 37.22863322 64.22631836 41.62939453 C64.25910985 45.88286685 64.2768944 50.13617001 64.28463173 54.38975906 C64.29013995 56.00593348 64.30089542 57.62209949 64.31719017 59.23820114 C64.44231647 72.17212419 63.5327538 83.67736664 54.47265625 93.6875 C47.87126924 99.90057013 40.59395942 102.22148853 31.625 102.625 C21.77996828 102.31703231 14.36858493 98.84552619 7.5 91.8125 C-0.96285006 82.40314697 -0.54609316 70.149389 -0.390625 58.30078125 C-0.38314921 56.61257096 -0.37746262 54.92435189 -0.37347412 53.23612976 C-0.35832285 48.82849464 -0.31913413 44.42140077 -0.2746582 40.01397705 C-0.23347645 35.50223102 -0.21541458 30.99039611 -0.1953125 26.47851562 C-0.15262746 17.65206971 -0.08236613 8.82616489 0 0 Z " fill="#F9F9F9" transform="translate(11,16)"/>
<path d="M0 0 C1.40958984 -0.00193359 1.40958984 -0.00193359 2.84765625 -0.00390625 C3.83636719 -0.00003906 4.82507813 0.00382812 5.84375 0.0078125 C7.32681641 0.00201172 7.32681641 0.00201172 8.83984375 -0.00390625 C9.77957031 -0.00261719 10.71929687 -0.00132813 11.6875 0 C12.55568359 0.00112793 13.42386719 0.00225586 14.31835938 0.00341797 C16.34375 0.1328125 16.34375 0.1328125 17.34375 1.1328125 C17.59410974 4.43798184 17.52896952 7.75677291 17.53125 11.0703125 C17.54349609 12.00294922 17.55574219 12.93558594 17.56835938 13.89648438 C17.57125977 15.23356445 17.57125977 15.23356445 17.57421875 16.59765625 C17.57832764 17.4187085 17.58243652 18.23976074 17.58666992 19.08569336 C17.34375 21.1328125 17.34375 21.1328125 15.34375 23.1328125 C13.28076172 23.35986328 13.28076172 23.35986328 10.7734375 23.328125 C9.87753906 23.32167969 8.98164062 23.31523438 8.05859375 23.30859375 C7.12144531 23.29183594 6.18429688 23.27507812 5.21875 23.2578125 C4.27386719 23.24878906 3.32898438 23.23976563 2.35546875 23.23046875 C0.01797708 23.20685772 -2.31901123 23.17392766 -4.65625 23.1328125 C-5.84844354 20.74842541 -5.78541022 19.25625248 -5.7890625 16.59765625 C-5.79035156 15.70626953 -5.79164062 14.81488281 -5.79296875 13.89648438 C-5.78910156 12.96384766 -5.78523438 12.03121094 -5.78125 11.0703125 C-5.78511719 10.13380859 -5.78898437 9.19730469 -5.79296875 8.23242188 C-5.79167969 7.34232422 -5.79039063 6.45222656 -5.7890625 5.53515625 C-5.78793457 4.71523193 -5.78680664 3.89530762 -5.78564453 3.05053711 C-5.52987637 -0.74014005 -3.26272705 0.00423888 0 0 Z " fill="#F6F6F6" transform="translate(86.65625,94.8671875)"/>
<path d="M0 0 C1.39895508 -0.01836914 1.39895508 -0.01836914 2.82617188 -0.03710938 C4.16325195 -0.04000977 4.16325195 -0.04000977 5.52734375 -0.04296875 C6.348396 -0.04707764 7.16944824 -0.05118652 8.01538086 -0.05541992 C10.0625 0.1875 10.0625 0.1875 12.0625 2.1875 C12.32128906 4.12695312 12.32128906 4.12695312 12.328125 6.46875 C12.33199219 7.73138672 12.33199219 7.73138672 12.3359375 9.01953125 C12.32820313 9.89996094 12.32046875 10.78039062 12.3125 11.6875 C12.32023437 12.56792969 12.32796875 13.44835937 12.3359375 14.35546875 C12.33335937 15.19722656 12.33078125 16.03898437 12.328125 16.90625 C12.32586914 17.67904297 12.32361328 18.45183594 12.32128906 19.24804688 C12.0625 21.1875 12.0625 21.1875 10.0625 23.1875 C8.01538086 23.43041992 8.01538086 23.43041992 5.52734375 23.41796875 C4.63595703 23.41603516 3.74457031 23.41410156 2.82617188 23.41210938 C1.89353516 23.39986328 0.96089844 23.38761719 0 23.375 C-1.40475586 23.3740332 -1.40475586 23.3740332 -2.83789062 23.37304688 C-9.79730776 23.32769224 -9.79730776 23.32769224 -10.9375 22.1875 C-11.03649523 20.63794441 -11.06829524 19.08396327 -11.0703125 17.53125 C-11.07160156 16.59152344 -11.07289062 15.65179688 -11.07421875 14.68359375 C-11.07035156 13.69488281 -11.06648438 12.70617187 -11.0625 11.6875 C-11.06636719 10.69878906 -11.07023437 9.71007812 -11.07421875 8.69140625 C-11.07292969 7.75167969 -11.07164063 6.81195313 -11.0703125 5.84375 C-11.06918457 4.97556641 -11.06805664 4.10738281 -11.06689453 3.21289062 C-10.74309574 -1.8554768 -3.86911414 0.00266285 0 0 Z " fill="#F5F5F5" transform="translate(118.9375,94.8125)"/>
<path d="M0 0 C1.39895508 -0.01836914 1.39895508 -0.01836914 2.82617188 -0.03710938 C4.16325195 -0.04000977 4.16325195 -0.04000977 5.52734375 -0.04296875 C6.348396 -0.04707764 7.16944824 -0.05118652 8.01538086 -0.05541992 C10.0625 0.1875 10.0625 0.1875 12.0625 2.1875 C12.32128906 4.12695312 12.32128906 4.12695312 12.328125 6.46875 C12.33199219 7.73138672 12.33199219 7.73138672 12.3359375 9.01953125 C12.32820313 9.89996094 12.32046875 10.78039063 12.3125 11.6875 C12.32023437 12.56792969 12.32796875 13.44835938 12.3359375 14.35546875 C12.33335937 15.19722656 12.33078125 16.03898437 12.328125 16.90625 C12.32586914 17.67904297 12.32361328 18.45183594 12.32128906 19.24804688 C12.0625 21.1875 12.0625 21.1875 10.0625 23.1875 C8.01538086 23.43041992 8.01538086 23.43041992 5.52734375 23.41796875 C4.63595703 23.41603516 3.74457031 23.41410156 2.82617188 23.41210938 C1.89353516 23.39986328 0.96089844 23.38761719 0 23.375 C-1.40475586 23.3740332 -1.40475586 23.3740332 -2.83789062 23.37304688 C-9.79730776 23.32769224 -9.79730776 23.32769224 -10.9375 22.1875 C-11.03649523 20.63794441 -11.06829524 19.08396327 -11.0703125 17.53125 C-11.07160156 16.59152344 -11.07289062 15.65179688 -11.07421875 14.68359375 C-11.07035156 13.69488281 -11.06648438 12.70617187 -11.0625 11.6875 C-11.06636719 10.69878906 -11.07023437 9.71007812 -11.07421875 8.69140625 C-11.07292969 7.75167969 -11.07164063 6.81195312 -11.0703125 5.84375 C-11.06918457 4.97556641 -11.06805664 4.10738281 -11.06689453 3.21289062 C-10.74309574 -1.8554768 -3.86911414 0.00266285 0 0 Z " fill="#F4F5F5" transform="translate(118.9375,15.8125)"/>
<path d="M0 0 C0.84175781 -0.00257812 1.68351562 -0.00515625 2.55078125 -0.0078125 C3.87142578 0.00378906 3.87142578 0.00378906 5.21875 0.015625 C6.09917969 0.00789062 6.97960937 0.00015625 7.88671875 -0.0078125 C8.72847656 -0.00523438 9.57023437 -0.00265625 10.4375 0 C11.59668945 0.00338379 11.59668945 0.00338379 12.77929688 0.00683594 C14.71875 0.265625 14.71875 0.265625 16.71875 2.265625 C16.96166992 4.31274414 16.96166992 4.31274414 16.94921875 6.80078125 C16.94728516 7.69216797 16.94535156 8.58355469 16.94335938 9.50195312 C16.92499023 10.9009082 16.92499023 10.9009082 16.90625 12.328125 C16.90560547 13.26462891 16.90496094 14.20113281 16.90429688 15.16601562 C16.85894224 22.12543276 16.85894224 22.12543276 15.71875 23.265625 C14.16919441 23.36462023 12.61521327 23.39642024 11.0625 23.3984375 C9.65291016 23.40037109 9.65291016 23.40037109 8.21484375 23.40234375 C7.22613281 23.39847656 6.23742187 23.39460938 5.21875 23.390625 C4.23003906 23.39449219 3.24132812 23.39835937 2.22265625 23.40234375 C1.28292969 23.40105469 0.34320313 23.39976563 -0.625 23.3984375 C-1.49318359 23.39730957 -2.36136719 23.39618164 -3.25585938 23.39501953 C-5.28125 23.265625 -5.28125 23.265625 -6.28125 22.265625 C-6.53160974 18.96045566 -6.46646952 15.64166459 -6.46875 12.328125 C-6.48099609 11.39548828 -6.49324219 10.46285156 -6.50585938 9.50195312 C-6.50779297 8.61056641 -6.50972656 7.71917969 -6.51171875 6.80078125 C-6.51788208 5.56920288 -6.51788208 5.56920288 -6.52416992 4.31274414 C-6.03058838 0.15326551 -3.60296022 0.0105174 0 0 Z " fill="#F7F8F8" transform="translate(87.28125,15.734375)"/>
<path d="M0 0 C1.40958984 -0.00193359 1.40958984 -0.00193359 2.84765625 -0.00390625 C3.83636719 -0.00003906 4.82507813 0.00382812 5.84375 0.0078125 C7.32681641 0.00201172 7.32681641 0.00201172 8.83984375 -0.00390625 C9.77957031 -0.00261719 10.71929687 -0.00132813 11.6875 0 C12.55568359 0.00112793 13.42386719 0.00225586 14.31835938 0.00341797 C16.34375 0.1328125 16.34375 0.1328125 17.34375 1.1328125 C17.43060603 2.69453995 17.45077219 4.26010594 17.44140625 5.82421875 C17.43818359 6.76845703 17.43496094 7.71269531 17.43164062 8.68554688 C17.42326172 9.67876953 17.41488281 10.67199219 17.40625 11.6953125 C17.40173828 12.69240234 17.39722656 13.68949219 17.39257812 14.71679688 C17.38075007 17.18886099 17.36426849 19.66080768 17.34375 22.1328125 C13.69793313 22.16168762 10.05214537 22.17956835 6.40625 22.1953125 C4.84487305 22.20788086 4.84487305 22.20788086 3.25195312 22.22070312 C2.26259766 22.22392578 1.27324219 22.22714844 0.25390625 22.23046875 C-1.12075806 22.23832397 -1.12075806 22.23832397 -2.52319336 22.24633789 C-4.65625 22.1328125 -4.65625 22.1328125 -5.65625 21.1328125 C-5.75505797 19.65628586 -5.78704245 18.17514014 -5.7890625 16.6953125 C-5.79035156 15.80070312 -5.79164062 14.90609375 -5.79296875 13.984375 C-5.78716797 12.57285156 -5.78716797 12.57285156 -5.78125 11.1328125 C-5.78511719 10.19179687 -5.78898437 9.25078125 -5.79296875 8.28125 C-5.79167969 7.38664062 -5.79039063 6.49203125 -5.7890625 5.5703125 C-5.78737061 4.33087891 -5.78737061 4.33087891 -5.78564453 3.06640625 C-5.53103978 -0.73825341 -3.27931619 0.00426043 0 0 Z " fill="#FBFBFB" transform="translate(86.65625,68.8671875)"/>
<path d="M0 0 C1.40958984 -0.00193359 1.40958984 -0.00193359 2.84765625 -0.00390625 C3.83636719 -0.00003906 4.82507813 0.00382812 5.84375 0.0078125 C7.32681641 0.00201172 7.32681641 0.00201172 8.83984375 -0.00390625 C9.77957031 -0.00261719 10.71929687 -0.00132813 11.6875 0 C12.55568359 0.00112793 13.42386719 0.00225586 14.31835938 0.00341797 C16.34375 0.1328125 16.34375 0.1328125 17.34375 1.1328125 C17.44255797 2.60933914 17.47454245 4.09048486 17.4765625 5.5703125 C17.47849609 6.91222656 17.47849609 6.91222656 17.48046875 8.28125 C17.47660156 9.22226562 17.47273438 10.16328125 17.46875 11.1328125 C17.47455078 12.54433594 17.47455078 12.54433594 17.48046875 13.984375 C17.47917969 14.87898438 17.47789063 15.77359375 17.4765625 16.6953125 C17.47543457 17.52160156 17.47430664 18.34789063 17.47314453 19.19921875 C17.34375 21.1328125 17.34375 21.1328125 16.34375 22.1328125 C14.79419441 22.23180773 13.24021327 22.26360774 11.6875 22.265625 C10.27791016 22.26755859 10.27791016 22.26755859 8.83984375 22.26953125 C7.85113281 22.26566406 6.86242187 22.26179688 5.84375 22.2578125 C4.85503906 22.26167969 3.86632812 22.26554687 2.84765625 22.26953125 C1.90792969 22.26824219 0.96820313 22.26695313 0 22.265625 C-0.86818359 22.26449707 -1.73636719 22.26336914 -2.63085938 22.26220703 C-4.65625 22.1328125 -4.65625 22.1328125 -5.65625 21.1328125 C-5.75505797 19.65628586 -5.78704245 18.17514014 -5.7890625 16.6953125 C-5.79035156 15.80070312 -5.79164062 14.90609375 -5.79296875 13.984375 C-5.78716797 12.57285156 -5.78716797 12.57285156 -5.78125 11.1328125 C-5.78511719 10.19179688 -5.78898437 9.25078125 -5.79296875 8.28125 C-5.79167969 7.38664062 -5.79039063 6.49203125 -5.7890625 5.5703125 C-5.78737061 4.33087891 -5.78737061 4.33087891 -5.78564453 3.06640625 C-5.53103978 -0.73825341 -3.27931619 0.00426043 0 0 Z " fill="#FCFCFC" transform="translate(86.65625,42.8671875)"/>
<path d="M0 0 C1.39895508 -0.01836914 1.39895508 -0.01836914 2.82617188 -0.03710938 C4.16325195 -0.04000977 4.16325195 -0.04000977 5.52734375 -0.04296875 C6.348396 -0.04707764 7.16944824 -0.05118652 8.01538086 -0.05541992 C10.0625 0.1875 10.0625 0.1875 12.0625 2.1875 C12.30541992 4.14282227 12.30541992 4.14282227 12.29296875 6.50390625 C12.29103516 7.35017578 12.28910156 8.19644531 12.28710938 9.06835938 C12.26874023 10.39577148 12.26874023 10.39577148 12.25 11.75 C12.24935547 12.63880859 12.24871094 13.52761719 12.24804688 14.44335938 C12.20271097 21.04728903 12.20271097 21.04728903 11.0625 22.1875 C9.42777118 22.27450342 7.78935945 22.29451063 6.15234375 22.28515625 C5.16298828 22.28193359 4.17363281 22.27871094 3.15429688 22.27539062 C2.11337891 22.26701172 1.07246094 22.25863281 0 22.25 C-1.04478516 22.24548828 -2.08957031 22.24097656 -3.16601562 22.23632812 C-5.7565666 22.22449913 -8.34700559 22.20801689 -10.9375 22.1875 C-10.96637814 18.70835059 -10.98425687 15.22923169 -11 11.75 C-11.00837891 10.75677734 -11.01675781 9.76355469 -11.02539062 8.74023438 C-11.02861328 7.79599609 -11.03183594 6.85175781 -11.03515625 5.87890625 C-11.04039307 5.00435791 -11.04562988 4.12980957 -11.05102539 3.22875977 C-10.7679108 -1.86182324 -3.87351903 0.00266588 0 0 Z " fill="#F9F9F9" transform="translate(118.9375,68.8125)"/>
<path d="M0 0 C0.89009766 -0.00128906 1.78019531 -0.00257812 2.69726562 -0.00390625 C3.63376953 -0.00003906 4.57027344 0.00382812 5.53515625 0.0078125 C6.46779297 0.00394531 7.40042969 0.00007813 8.36132812 -0.00390625 C9.25271484 -0.00261719 10.14410156 -0.00132813 11.0625 0 C11.88355225 0.00112793 12.70460449 0.00225586 13.55053711 0.00341797 C15.59765625 0.1328125 15.59765625 0.1328125 17.59765625 1.1328125 C17.62653771 4.44529437 17.64441424 7.75774417 17.66015625 11.0703125 C17.66853516 12.01583984 17.67691406 12.96136719 17.68554688 13.93554688 C17.69038086 15.28422852 17.69038086 15.28422852 17.6953125 16.66015625 C17.70316772 17.90913696 17.70316772 17.90913696 17.71118164 19.18334961 C17.59765625 21.1328125 17.59765625 21.1328125 16.59765625 22.1328125 C15.04810066 22.23180773 13.49411952 22.26360774 11.94140625 22.265625 C10.53181641 22.26755859 10.53181641 22.26755859 9.09375 22.26953125 C8.10503906 22.26566406 7.11632812 22.26179688 6.09765625 22.2578125 C5.10894531 22.26167969 4.12023437 22.26554687 3.1015625 22.26953125 C2.16183594 22.26824219 1.22210938 22.26695313 0.25390625 22.265625 C-0.61427734 22.26449707 -1.48246094 22.26336914 -2.37695312 22.26220703 C-4.40234375 22.1328125 -4.40234375 22.1328125 -5.40234375 21.1328125 C-5.50115172 19.65628586 -5.5331362 18.17514014 -5.53515625 16.6953125 C-5.53644531 15.80070312 -5.53773437 14.90609375 -5.5390625 13.984375 C-5.53326172 12.57285156 -5.53326172 12.57285156 -5.52734375 11.1328125 C-5.53121094 10.19179688 -5.53507812 9.25078125 -5.5390625 8.28125 C-5.53777344 7.38664062 -5.53648438 6.49203125 -5.53515625 5.5703125 C-5.53346436 4.33087891 -5.53346436 4.33087891 -5.53173828 3.06640625 C-5.28309451 -0.64917621 -3.22348827 0.00443439 0 0 Z " fill="#F9FAFA" transform="translate(113.40234375,42.8671875)"/>
<path d="M0 0 C0.99 0 1.98 0 3 0 C3.00364563 0.92548645 3.00729126 1.8509729 3.01104736 2.80450439 C3.04908131 11.57179887 3.10610734 20.33872717 3.18390274 29.10576248 C3.2232335 33.61186321 3.255492 38.11777274 3.27099609 42.62402344 C3.28625835 46.98148313 3.32087075 51.33841663 3.36830902 55.69564056 C3.38302496 57.34916329 3.39103533 59.00276119 3.39188385 60.65634918 C3.40525292 73.65865785 4.24599713 85.22972867 13.76171875 95.0859375 C17.19565747 98.0224645 20.90834475 100.11518659 25 102 C25 102.33 25 102.66 25 103 C16.93856447 102.35508516 12.32967407 98.89069239 7 93 C-0.95283565 82.94200197 -0.41077527 71.35325025 -0.29296875 59.1796875 C-0.28736355 57.46762466 -0.28309782 55.75555695 -0.28010559 54.04348755 C-0.26872949 49.56854635 -0.23932586 45.09390391 -0.20599365 40.61907959 C-0.17513553 36.04036499 -0.16156683 31.46160144 -0.14648438 26.8828125 C-0.11444819 17.92174477 -0.06334092 8.96089737 0 0 Z " fill="#E2E2E2" transform="translate(4,16)"/>
<path d="M0 0 C0.66 0.99 1.32 1.98 2 3 C5.46122857 6.80909803 5.46122857 6.80909803 10 9 C10 9.66 10 10.32 10 11 C9.236875 11.2475 8.47375 11.495 7.6875 11.75 C4.71392111 13.13305995 3.67876071 14.23004483 2 17 C1.67 17.99 1.34 18.98 1 20 C0.34 20 -0.32 20 -1 20 C-1.185625 18.88625 -1.37125 17.7725 -1.5625 16.625 C-2.036875 15.42875 -2.51125 14.2325 -3 13 C-6.51400668 11.45913678 -6.51400668 11.45913678 -10 11 C-10 10.34 -10 9.68 -10 9 C-8.63875 8.443125 -8.63875 8.443125 -7.25 7.875 C-3.54887824 5.73973745 -2.11346343 3.65791748 0 0 Z " fill="#E8E8E8" transform="translate(137,3)"/>
<path d="M0 0 C2.97 1.65 5.94 3.3 9 5 C8.67 5.99 8.34 6.98 8 8 C4.40608886 6.66511872 1.24509304 5.03977277 -2 3 C-1.34 2.67 -0.68 2.34 0 2 C0 1.34 0 0.68 0 0 Z " fill="#1E1F1F" transform="translate(21,110)"/>
</svg>
