<?xml version="1.0" encoding="UTF-8"?>
<svg version="1.1" xmlns="http://www.w3.org/2000/svg" width="273" height="232">
<path d="M0 0 C90.09 0 180.18 0 273 0 C273 76.56 273 153.12 273 232 C182.91 232 92.82 232 0 232 C0 155.44 0 78.88 0 0 Z " fill="#FBFBFB" transform="translate(0,0)"/>
<path d="M0 0 C10.89 0 21.78 0 33 0 C33.06788688 17.37730094 33.12308028 34.75448757 33.15543652 52.13188457 C33.17086363 60.20165972 33.19187302 68.27134622 33.22631836 76.34106445 C33.25634868 83.37984382 33.27560515 90.41855896 33.28226548 97.45740062 C33.28615482 101.17970127 33.29520703 104.90181826 33.31719017 108.62405968 C33.34161048 112.79331769 33.34196132 116.96226237 33.34057617 121.1315918 C33.351362 122.34720291 33.36214783 123.56281403 33.3732605 124.81526184 C33.30612342 143.59839756 27.4299832 159.06909013 14.625 172.8125 C3.10296863 183.75842981 -10.30747185 187.17018018 -25.6875 187.3125 C-26.71294922 187.34150391 -27.73839844 187.37050781 -28.79492188 187.40039062 C-43.03121058 187.51730266 -55.91903316 181.07235269 -66.25 171.4375 C-78.8366933 158.06160889 -83.66607452 141.97485979 -83.45410156 123.83447266 C-83.4529694 122.48267145 -83.45361411 121.13086779 -83.45587158 119.77906799 C-83.45700532 116.15788835 -83.43371762 112.53725371 -83.40557575 108.91619921 C-83.38033463 105.11395159 -83.37820241 101.31168738 -83.37347412 97.5093689 C-83.36111031 90.33089987 -83.32837952 83.15267854 -83.28807616 75.97431791 C-83.24315129 67.79280559 -83.22131968 59.61128057 -83.20129442 51.42967534 C-83.15963975 34.61961627 -83.08637156 17.80989783 -83 1 C-72.44 1 -61.88 1 -51 1 C-50.970271 6.79884766 -50.970271 6.79884766 -50.93994141 12.71484375 C-50.87301876 25.49130081 -50.79547804 38.26767496 -50.71247292 51.04403687 C-50.66240866 58.78991737 -50.61596517 66.53578762 -50.578125 74.28173828 C-50.54512388 81.03522935 -50.50524813 87.78863937 -50.45720994 94.54204082 C-50.43202544 98.11598527 -50.4102207 101.6898765 -50.39665604 105.2638855 C-50.38136263 109.25937493 -50.3507175 113.25460838 -50.31884766 117.25 C-50.31668747 118.42748306 -50.31452728 119.60496613 -50.31230164 120.81813049 C-50.20952063 130.91278308 -48.93693553 141.16224955 -41.36328125 148.609375 C-35.74980443 152.89832358 -29.42079825 154.56673681 -22.3984375 154.375 C-15.39778858 153.280436 -9.75453809 149.47030335 -5.25390625 144.13671875 C-0.74492593 136.45319154 -0.5573935 129.52090742 -0.56762695 120.79101562 C-0.5574353 119.48286896 -0.54724365 118.17472229 -0.53674316 116.82693481 C-0.50929525 113.26138406 -0.49990541 109.69599278 -0.49388909 106.13035011 C-0.48447341 102.39604058 -0.45826757 98.66184869 -0.43388367 94.9276123 C-0.39030249 87.86595831 -0.36170418 80.80432726 -0.33856028 73.74257994 C-0.31146352 65.69894862 -0.26755488 57.65543613 -0.22227156 49.61188984 C-0.12954535 33.07464111 -0.06002868 16.53740466 0 0 Z " fill="#020202" transform="translate(104,26)"/>
<path d="M0 0 C1.14825256 -0.00430527 1.14825256 -0.00430527 2.31970215 -0.00869751 C3.93693787 -0.0107375 5.5541983 -0.00521213 7.17138672 0.00732422 C9.64737091 0.02337992 12.12172285 0.00747453 14.59765625 -0.01171875 C16.16927444 -0.00973631 17.74089161 -0.0058926 19.3125 0 C20.05318726 -0.00607269 20.79387451 -0.01214539 21.55700684 -0.0184021 C24.34369307 0.01974442 26.62233424 0.1210666 29.12158203 1.41943359 C30.79684828 4.62370642 30.58280131 7.93062635 30.5546875 11.4609375 C30.55755768 12.24863525 30.56042786 13.03633301 30.56338501 13.84790039 C30.56542522 15.51221435 30.55989832 17.17655231 30.54736328 18.84082031 C30.53130809 21.38921697 30.54721244 23.93602771 30.56640625 26.484375 C30.56442381 28.101566 30.56058011 29.71875602 30.5546875 31.3359375 C30.56379654 32.47977905 30.56379654 32.47977905 30.5730896 33.64672852 C30.53526495 36.48998192 30.45403755 38.82886083 29.12158203 41.37744141 C25.97874119 43.01015699 22.77096953 42.82523005 19.3125 42.796875 C18.16424744 42.80118027 18.16424744 42.80118027 16.99279785 42.80557251 C15.37556213 42.8076125 13.7583017 42.80208713 12.14111328 42.78955078 C9.66512909 42.77349508 7.19077715 42.78940047 4.71484375 42.80859375 C3.14322556 42.80661131 1.57160839 42.8027676 0 42.796875 C-0.74068726 42.80294769 -1.48137451 42.80902039 -2.24450684 42.8152771 C-5.03119307 42.77713058 -7.30983424 42.6758084 -9.80908203 41.37744141 C-11.48434828 38.17316858 -11.27030131 34.86624865 -11.2421875 31.3359375 C-11.24649277 30.15439087 -11.24649277 30.15439087 -11.25088501 28.94897461 C-11.25292522 27.28466065 -11.24739832 25.62032269 -11.23486328 23.95605469 C-11.21880809 21.40765803 -11.23471244 18.86084729 -11.25390625 16.3125 C-11.25192381 14.695309 -11.24808011 13.07811898 -11.2421875 11.4609375 C-11.24826019 10.69837646 -11.25433289 9.93581543 -11.2605896 9.15014648 C-11.22276495 6.30689308 -11.14153755 3.96801417 -9.80908203 1.41943359 C-6.66624119 -0.21328199 -3.45846953 -0.02835505 0 0 Z " fill="#040404" transform="translate(159.84375,122.6015625)"/>
<path d="M0 0 C1.14825256 -0.00430527 1.14825256 -0.00430527 2.31970215 -0.00869751 C3.93693787 -0.0107375 5.5541983 -0.00521213 7.17138672 0.00732422 C9.64737091 0.02337992 12.12172285 0.00747453 14.59765625 -0.01171875 C16.16927444 -0.00973631 17.74089161 -0.0058926 19.3125 0 C20.05318726 -0.00607269 20.79387451 -0.01214539 21.55700684 -0.0184021 C24.34369307 0.01974442 26.62233424 0.1210666 29.12158203 1.41943359 C30.79684828 4.62370642 30.58280131 7.93062635 30.5546875 11.4609375 C30.55755768 12.24863525 30.56042786 13.03633301 30.56338501 13.84790039 C30.56542522 15.51221435 30.55989832 17.17655231 30.54736328 18.84082031 C30.53130809 21.38921697 30.54721244 23.93602771 30.56640625 26.484375 C30.56442381 28.101566 30.56058011 29.71875602 30.5546875 31.3359375 C30.56379654 32.47977905 30.56379654 32.47977905 30.5730896 33.64672852 C30.53526495 36.48998192 30.45403755 38.82886083 29.12158203 41.37744141 C25.97874119 43.01015699 22.77096953 42.82523005 19.3125 42.796875 C18.16424744 42.80118027 18.16424744 42.80118027 16.99279785 42.80557251 C15.37556213 42.8076125 13.7583017 42.80208713 12.14111328 42.78955078 C9.66512909 42.77349508 7.19077715 42.78940047 4.71484375 42.80859375 C3.14322556 42.80661131 1.57160839 42.8027676 0 42.796875 C-0.74068726 42.80294769 -1.48137451 42.80902039 -2.24450684 42.8152771 C-5.03119307 42.77713058 -7.30983424 42.6758084 -9.80908203 41.37744141 C-11.48434828 38.17316858 -11.27030131 34.86624865 -11.2421875 31.3359375 C-11.24649277 30.15439087 -11.24649277 30.15439087 -11.25088501 28.94897461 C-11.25292522 27.28466065 -11.24739832 25.62032269 -11.23486328 23.95605469 C-11.21880809 21.40765803 -11.23471244 18.86084729 -11.25390625 16.3125 C-11.25192381 14.695309 -11.24808011 13.07811898 -11.2421875 11.4609375 C-11.24826019 10.69837646 -11.25433289 9.93581543 -11.2605896 9.15014648 C-11.22276495 6.30689308 -11.14153755 3.96801417 -9.80908203 1.41943359 C-6.66624119 -0.21328199 -3.45846953 -0.02835505 0 0 Z " fill="#030303" transform="translate(208.84375,74.6015625)"/>
<path d="M0 0 C1.14825256 -0.00430527 1.14825256 -0.00430527 2.31970215 -0.00869751 C3.93693787 -0.0107375 5.5541983 -0.00521213 7.17138672 0.00732422 C9.64737091 0.02337992 12.12172285 0.00747453 14.59765625 -0.01171875 C16.16927444 -0.00973631 17.74089161 -0.0058926 19.3125 0 C20.05318726 -0.00607269 20.79387451 -0.01214539 21.55700684 -0.0184021 C24.34369307 0.01974442 26.62233424 0.1210666 29.12158203 1.41943359 C30.79684828 4.62370642 30.58280131 7.93062635 30.5546875 11.4609375 C30.55755768 12.24863525 30.56042786 13.03633301 30.56338501 13.84790039 C30.56542522 15.51221435 30.55989832 17.17655231 30.54736328 18.84082031 C30.53130809 21.38921697 30.54721244 23.93602771 30.56640625 26.484375 C30.56442381 28.101566 30.56058011 29.71875602 30.5546875 31.3359375 C30.56379654 32.47977905 30.56379654 32.47977905 30.5730896 33.64672852 C30.53526495 36.48998192 30.45403755 38.82886083 29.12158203 41.37744141 C25.97874119 43.01015699 22.77096953 42.82523005 19.3125 42.796875 C18.16424744 42.80118027 18.16424744 42.80118027 16.99279785 42.80557251 C15.37556213 42.8076125 13.7583017 42.80208713 12.14111328 42.78955078 C9.66512909 42.77349508 7.19077715 42.78940047 4.71484375 42.80859375 C3.14322556 42.80661131 1.57160839 42.8027676 0 42.796875 C-0.74068726 42.80294769 -1.48137451 42.80902039 -2.24450684 42.8152771 C-5.03119307 42.77713058 -7.30983424 42.6758084 -9.80908203 41.37744141 C-11.48434828 38.17316858 -11.27030131 34.86624865 -11.2421875 31.3359375 C-11.24649277 30.15439087 -11.24649277 30.15439087 -11.25088501 28.94897461 C-11.25292522 27.28466065 -11.24739832 25.62032269 -11.23486328 23.95605469 C-11.21880809 21.40765803 -11.23471244 18.86084729 -11.25390625 16.3125 C-11.25192381 14.695309 -11.24808011 13.07811898 -11.2421875 11.4609375 C-11.24826019 10.69837646 -11.25433289 9.93581543 -11.2605896 9.15014648 C-11.22276495 6.30689308 -11.14153755 3.96801417 -9.80908203 1.41943359 C-6.66624119 -0.21328199 -3.45846953 -0.02835505 0 0 Z " fill="#030303" transform="translate(159.84375,74.6015625)"/>
<path d="M0 0 C0.74189072 -0.00287018 1.48378143 -0.00574036 2.24815369 -0.00869751 C3.81233486 -0.0107343 5.37654172 -0.00523133 6.94067383 0.00732422 C9.33537603 0.02340749 11.72839646 0.00745222 14.12304688 -0.01171875 C15.64453497 -0.00973669 17.16602203 -0.00589379 18.6875 0 C19.40317642 -0.00607269 20.11885284 -0.01214539 20.85621643 -0.0184021 C23.5847448 0.02024905 25.78554104 0.14086468 28.22680664 1.41943359 C29.92517757 4.61882815 29.70393016 7.92621863 29.67578125 11.4609375 C29.67865143 12.24863525 29.68152161 13.03633301 29.68447876 13.84790039 C29.68651897 15.51221435 29.68099207 17.17655231 29.66845703 18.84082031 C29.65240184 21.38921697 29.66830619 23.93602771 29.6875 26.484375 C29.68551756 28.101566 29.68167386 29.71875602 29.67578125 31.3359375 C29.68489029 32.47977905 29.68489029 32.47977905 29.69418335 33.64672852 C29.6563587 36.48998192 29.5751313 38.82886083 28.24267578 41.37744141 C25.09983494 43.01015699 21.89206328 42.82523005 18.43359375 42.796875 C17.28534119 42.80118027 17.28534119 42.80118027 16.1138916 42.80557251 C14.49665588 42.8076125 12.87939545 42.80208713 11.26220703 42.78955078 C8.78622284 42.77349508 6.3118709 42.78940047 3.8359375 42.80859375 C2.26431931 42.80661131 0.69270214 42.8027676 -0.87890625 42.796875 C-1.61959351 42.80294769 -2.36028076 42.80902039 -3.12341309 42.8152771 C-5.90938342 42.77714038 -8.18766183 42.67667984 -10.68579102 41.37744141 C-12.3636073 38.17509179 -12.16984348 34.86697846 -12.15625 31.3359375 C-12.16411278 30.15439087 -12.16411278 30.15439087 -12.1721344 28.94897461 C-12.17855376 27.28467996 -12.17721866 25.62033993 -12.16870117 23.95605469 C-12.16018614 21.40738348 -12.18895824 18.86094996 -12.22070312 16.3125 C-12.22231511 14.69531317 -12.22173767 13.07812237 -12.21875 11.4609375 C-12.22998398 10.69837646 -12.24121796 9.93581543 -12.25279236 9.15014648 C-12.21143789 6.01652989 -12.14038246 3.93235245 -10.17431641 1.41943359 C-6.78748055 0.00898273 -3.60893124 -0.03070954 0 0 Z " fill="#030303" transform="translate(209.72265625,122.6015625)"/>
<path d="M0 0 C0.79006943 -0.0004985 1.58013885 -0.00099701 2.39414978 -0.00151062 C4.0626782 0.00082817 5.73121026 0.01054531 7.3996582 0.02709961 C9.95881539 0.0507256 12.51693312 0.04765533 15.07617188 0.04101562 C16.69662082 0.04659133 18.31706536 0.05370054 19.9375 0.0625 C20.70522232 0.06158859 21.47294464 0.06067719 22.26393127 0.05973816 C27.67130341 0.13224091 27.67130341 0.13224091 29.90234375 2.36328125 C30.10213205 5.0530726 30.18215655 7.6376496 30.16796875 10.328125 C30.17083893 11.51179405 30.17083893 11.51179405 30.17376709 12.71937561 C30.17512908 14.38966185 30.17143165 16.05995867 30.16308594 17.73022461 C30.15240055 20.28718895 30.16297314 22.84344843 30.17578125 25.40039062 C30.17445938 27.02213697 30.17189641 28.64388287 30.16796875 30.265625 C30.17201721 31.03132309 30.17606567 31.79702118 30.18023682 32.58592224 C30.14674175 36.37977376 30.05839019 38.12921158 27.90234375 41.36328125 C25.17088388 41.65516523 22.66955004 41.75933671 19.9375 41.7265625 C19.1483873 41.727061 18.3592746 41.72755951 17.54624939 41.72807312 C15.87594081 41.72573088 14.20562881 41.71599345 12.53540039 41.69946289 C9.97835701 41.67590574 7.42235841 41.67889604 4.86523438 41.68554688 C3.24348336 41.67996896 1.62173675 41.67285837 0 41.6640625 C-1.14854713 41.66542961 -1.14854713 41.66542961 -2.32029724 41.66682434 C-6.10729606 41.61627192 -7.87036911 41.51480601 -11.09765625 39.36328125 C-11.40194436 36.63215195 -11.51771264 34.13154266 -11.49609375 31.3984375 C-11.49896393 30.6093248 -11.50183411 29.8202121 -11.50479126 29.00718689 C-11.50683425 27.3368966 -11.50128794 25.66658252 -11.48876953 23.99633789 C-11.47273955 21.43907076 -11.48859827 18.88338919 -11.5078125 16.32617188 C-11.50582969 14.70442359 -11.50198523 13.08267629 -11.49609375 11.4609375 C-11.50216644 10.69523941 -11.50823914 9.92954132 -11.51449585 9.14064026 C-11.47682479 6.29607441 -11.39308845 3.93842891 -10.07885742 1.37988281 C-6.85730532 -0.27317239 -3.53609929 -0.04253188 0 0 Z " fill="#010001" transform="translate(209.09765625,26.63671875)"/>
<path d="M0 0 C0.79273315 0.00404846 1.58546631 0.00809692 2.40222168 0.01226807 C3.62274231 0.00939789 3.62274231 0.00939789 4.86791992 0.00646973 C6.58948068 0.0051078 8.31105171 0.00880479 10.03259277 0.01715088 C12.67296338 0.02785048 15.31265357 0.01725607 17.95300293 0.00445557 C19.62357735 0.00577716 21.29415135 0.00833955 22.96472168 0.01226807 C23.75745483 0.0082196 24.55018799 0.00417114 25.36694336 0 C30.95355141 0.04797279 30.95355141 0.04797279 33.18347168 2.27789307 C33.39549586 4.96749046 33.48744782 7.55153029 33.48425293 10.24273682 C33.48853806 11.03184952 33.49282318 11.82096222 33.49723816 12.63398743 C33.5029853 14.30426066 33.50347889 15.97455893 33.49914551 17.64483643 C33.49598822 20.20199278 33.51942919 22.75798946 33.5447998 25.31500244 C33.54707302 26.93674577 33.54777619 28.55849222 33.54675293 30.18023682 C33.55596268 30.94593491 33.56517242 31.711633 33.57466125 32.50053406 C33.54977486 35.35349683 33.48496729 37.69935514 32.15100098 40.25909424 C29.00603128 41.88757898 25.79853616 41.70468844 22.33972168 41.67633057 C21.19146912 41.68063583 21.19146912 41.68063583 20.02001953 41.68502808 C18.40278381 41.68706806 16.78552338 41.68154269 15.16833496 41.66900635 C12.69235077 41.65295064 10.21799883 41.66885603 7.74206543 41.68804932 C6.17044724 41.68606687 4.59883007 41.68222317 3.02722168 41.67633057 C2.28653442 41.68240326 1.54584717 41.68847595 0.78271484 41.69473267 C-2.00359839 41.65659126 -4.28364219 41.5538248 -6.78405762 40.25909424 C-8.46036443 37.04244023 -8.22239297 33.7206194 -8.17980957 30.18023682 C-8.18030807 29.39016739 -8.18080658 28.60009796 -8.18132019 27.78608704 C-8.1789814 26.11755861 -8.16926426 24.44902655 -8.15270996 22.78057861 C-8.12908397 20.22142143 -8.13215424 17.6633037 -8.13879395 15.10406494 C-8.13321824 13.483616 -8.12610903 11.86317146 -8.11730957 10.24273682 C-8.11822098 9.4750145 -8.11913239 8.70729218 -8.12007141 7.91630554 C-8.02907034 1.12929836 -6.75156576 0.05797641 0 0 Z " fill="#010101" transform="translate(205.8165283203125,171.72210693359375)"/>
<path d="M0 0 C0.79006943 -0.0004985 1.58013885 -0.00099701 2.39414978 -0.00151062 C4.0626782 0.00082817 5.73121026 0.01054531 7.3996582 0.02709961 C9.95881539 0.0507256 12.51693312 0.04765533 15.07617188 0.04101562 C16.69662082 0.04659133 18.31706536 0.05370054 19.9375 0.0625 C20.70522232 0.06158859 21.47294464 0.06067719 22.26393127 0.05973816 C27.67130341 0.13224091 27.67130341 0.13224091 29.90234375 2.36328125 C30.11436793 5.05287865 30.20631989 7.63691848 30.203125 10.328125 C30.20741013 11.1172377 30.21169525 11.9063504 30.21611023 12.71937561 C30.22185738 14.38964884 30.22235096 16.05994711 30.21801758 17.73022461 C30.2148603 20.28738097 30.23830126 22.84337765 30.26367188 25.40039062 C30.26594509 27.02213395 30.26664826 28.6438804 30.265625 30.265625 C30.27483475 31.03132309 30.28404449 31.79702118 30.29353333 32.58592224 C30.26864693 35.43888501 30.20383936 37.78474332 28.86987305 40.34448242 C25.72490335 41.97296716 22.51740823 41.79007663 19.05859375 41.76171875 C17.91034119 41.76602402 17.91034119 41.76602402 16.7388916 41.77041626 C15.12165588 41.77245625 13.50439545 41.76693088 11.88720703 41.75439453 C9.41122284 41.73833883 6.9368709 41.75424422 4.4609375 41.7734375 C2.88931931 41.77145506 1.31770214 41.76761135 -0.25390625 41.76171875 C-0.99459351 41.76779144 -1.73528076 41.77386414 -2.49841309 41.78012085 C-5.29191688 41.74188101 -7.56406181 41.64419718 -10.06298828 40.32861328 C-11.71548478 37.18972777 -11.5244809 33.98191575 -11.49609375 30.51953125 C-11.49896393 29.75402954 -11.50183411 28.98852783 -11.50479126 28.1998291 C-11.50683125 26.58259338 -11.50130588 24.96533295 -11.48876953 23.34814453 C-11.47271383 20.87216034 -11.48861922 18.3978084 -11.5078125 15.921875 C-11.50583006 14.35025681 -11.50198635 12.77863964 -11.49609375 11.20703125 C-11.50216644 10.46634399 -11.50823914 9.72565674 -11.51449585 8.96252441 C-11.47635444 6.17621118 -11.37358798 3.89616738 -10.07885742 1.39575195 C-6.86220342 -0.28055486 -3.54038258 -0.0425834 0 0 Z " fill="#020202" transform="translate(160.09765625,171.63671875)"/>
<path d="M0 0 C1.14825256 -0.00430527 1.14825256 -0.00430527 2.31970215 -0.00869751 C3.93693787 -0.0107375 5.5541983 -0.00521213 7.17138672 0.00732422 C9.64737091 0.02337992 12.12172285 0.00747453 14.59765625 -0.01171875 C16.16927444 -0.00973631 17.74089161 -0.0058926 19.3125 0 C20.05318726 -0.00607269 20.79387451 -0.01214539 21.55700684 -0.0184021 C24.35122627 0.01984754 26.62372625 0.11839833 29.1237793 1.43310547 C30.77386486 4.57408178 30.56257482 7.78043967 30.51953125 11.2421875 C30.52027901 12.39044006 30.52027901 12.39044006 30.52104187 13.56188965 C30.51870307 15.17914427 30.50898587 16.79640264 30.49243164 18.41357422 C30.46883681 20.88932842 30.47187205 23.36400567 30.47851562 25.83984375 C30.47293874 27.41146475 30.46582879 28.98308122 30.45703125 30.5546875 C30.45839836 31.66571838 30.45839836 31.66571838 30.45979309 32.79919434 C30.40823479 36.53579556 30.28177576 38.21014886 28.15625 41.3984375 C25.4251207 41.70272561 22.92451141 41.81849389 20.19140625 41.796875 C19.0077372 41.80118027 19.0077372 41.80118027 17.80015564 41.80557251 C16.12986535 41.8076155 14.45955127 41.80206919 12.78930664 41.78955078 C10.23203951 41.7735208 7.67635794 41.78937952 5.11914062 41.80859375 C3.49739234 41.80661094 1.87564504 41.80276648 0.25390625 41.796875 C-0.89464088 41.80598404 -0.89464088 41.80598404 -2.06639099 41.8152771 C-4.91795502 41.77751337 -7.26809097 41.69907126 -9.82495117 40.36376953 C-11.45448236 37.22029336 -11.27053744 34.01253394 -11.2421875 30.5546875 C-11.24505768 29.78918579 -11.24792786 29.02368408 -11.25088501 28.23498535 C-11.252925 26.61774963 -11.24739963 25.0004892 -11.23486328 23.38330078 C-11.21880758 20.90731659 -11.23471297 18.43296465 -11.25390625 15.95703125 C-11.25192381 14.38541306 -11.2480801 12.81379589 -11.2421875 11.2421875 C-11.24826019 10.50150024 -11.25433289 9.76081299 -11.2605896 8.99768066 C-11.22234976 6.20417687 -11.12466593 3.93203194 -9.80908203 1.43310547 C-6.67019652 -0.21939103 -3.4623845 -0.02838715 0 0 Z " fill="#010101" transform="translate(159.84375,26.6015625)"/>
<path d="M0 0 C1.65 0 3.3 0 5 0 C5.00238835 0.70015354 5.00477671 1.40030708 5.00723743 2.1216774 C5.06651195 19.20026965 5.14214108 36.27871224 5.23571491 53.35715103 C5.2805779 61.61634287 5.32001416 69.8754925 5.34643555 78.13476562 C5.36949287 85.33805436 5.40297641 92.54120846 5.44870156 99.74439025 C5.47253011 103.55434742 5.49132647 107.36417212 5.49761391 111.17420197 C5.50371215 114.76939234 5.52387999 118.3642442 5.55427551 121.95930862 C5.5670926 123.88926489 5.56549884 125.81930055 5.5632782 127.7492981 C5.74067178 144.41104397 10.83561534 159.62438732 22.546875 171.75390625 C29.31324556 177.94922962 36.85729346 182.81806676 45 187 C45 187.33 45 187.66 45 188 C34.87344986 188.60476221 26.05757616 183.12822294 18.5625 176.6875 C7.73726318 166.21718898 0.02879691 152.80894334 -0.24050903 137.57116699 C-0.24627926 135.00512952 -0.24105274 132.43905263 -0.22705078 129.87304688 C-0.22648585 128.45316577 -0.22680483 127.03328409 -0.22793579 125.61340332 C-0.22850711 121.77923673 -0.21678877 117.94519654 -0.20278788 114.11105919 C-0.19024352 110.09654769 -0.1891071 106.08203296 -0.18673706 102.06750488 C-0.18053315 94.47456012 -0.16413713 86.88167329 -0.14403808 79.28875399 C-0.12164511 70.64061541 -0.11067712 61.992474 -0.10064721 53.34431362 C-0.07976989 35.56284297 -0.04461518 17.78142615 0 0 Z " fill="#090A0A" transform="translate(8,27)"/>
<path d="M0 0 C0.66 0 1.32 0 2 0 C2.21914062 0.66386719 2.43828125 1.32773438 2.6640625 2.01171875 C5.12022542 8.8510342 7.25580821 12.65176825 13.94140625 15.9609375 C15.6052299 16.69369216 17.30053401 17.35420292 19 18 C17.61864337 20.76271327 15.9890967 21.01943044 13.1875 22.25 C7.28038464 25.12350405 5.02876287 28.22234025 2.75 34.375 C2.5025 35.24125 2.255 36.1075 2 37 C1.34 37 0.68 37 0 37 C-0.23074219 36.32453125 -0.46148437 35.6490625 -0.69921875 34.953125 C-3.07150187 28.46450873 -4.91512786 24.96679029 -11.3203125 21.8828125 C-13.53126439 20.87783437 -15.75276297 19.92043695 -18 19 C-15.79444226 16.79444226 -14.03659824 16.09665232 -11.1875 14.875 C-5.93043246 12.31483849 -3.28660734 9.34959765 -1 4 C-0.63370358 2.67534313 -0.29021738 1.34337737 0 0 Z " fill="#090909" transform="translate(250,2)"/>
</svg>
