<?xml version="1.0" encoding="UTF-8"?>
<svg version="1.1" xmlns="http://www.w3.org/2000/svg" width="150" height="124">
<path d="M0 0 C0.83917969 -0.00257812 1.67835937 -0.00515625 2.54296875 -0.0078125 C4.8125 0.125 4.8125 0.125 7.8125 1.125 C7.82129936 2.51775398 7.82129936 2.51775398 7.83027649 3.93864441 C7.88820511 12.69336268 7.96028292 21.44782588 8.04821491 30.20229626 C8.09292263 34.70296116 8.13217784 39.20353545 8.15893555 43.7043457 C8.18496458 48.04873971 8.22536403 52.39278512 8.27568626 56.73696327 C8.29235771 58.39348321 8.30387027 60.05006344 8.31011391 61.7066555 C8.31975217 64.02901028 8.34780677 66.35047273 8.38012695 68.67260742 C8.37797432 69.69760094 8.37797432 69.69760094 8.3757782 70.74330139 C8.45995207 75.02602765 9.21383351 77.70980699 11.8125 81.125 C16.13472975 84.21230697 19.59514986 84.54221191 24.69140625 83.77734375 C28.00609096 82.75791033 29.72067732 80.80514781 31.8125 78.125 C33.29788928 75.15422145 32.97010846 72.45163603 33.00195312 69.13671875 C33.01024643 68.41787506 33.01853973 67.69903137 33.02708435 66.95840454 C33.04449603 65.3956829 33.05965979 63.832935 33.07286072 62.27017212 C33.09386109 59.79942961 33.12088553 57.32881915 33.14953613 54.8581543 C33.2092695 49.61382 33.26141716 44.36942476 33.3125 39.125 C33.37167895 33.04938707 33.43392594 26.97383951 33.50437927 20.89834595 C33.53100607 18.45983976 33.55178873 16.02132717 33.5723877 13.58276367 C33.58898723 12.09293297 33.60585877 10.60310527 33.62304688 9.11328125 C33.63557495 7.80915283 33.64810303 6.50502441 33.66101074 5.16137695 C33.8125 2.125 33.8125 2.125 34.8125 0.125 C37.06243359 0.09792861 39.31246095 0.07857171 41.5625 0.0625 C42.81546875 0.05089844 44.0684375 0.03929687 45.359375 0.02734375 C48.14113714 0.10601349 50.1803174 0.39635941 52.8125 1.125 C52.90555698 10.8441268 52.97644486 20.56309805 53.01974869 30.28257465 C53.04054203 34.79669854 53.06870695 39.31051556 53.11425781 43.82446289 C53.15801249 48.18817815 53.18169903 52.55159995 53.19200897 56.91551781 C53.19934759 58.57275188 53.21367696 60.22997156 53.23542023 61.88707924 C53.38623412 73.86744128 52.50701854 84.66576887 44.640625 94.33984375 C37.95851783 100.86489284 30.14932387 103.68755542 21 104.4375 C11.41797258 104.0993108 3.56909131 100.94731691 -3.1875 94.125 C-8.9538742 87.0098387 -11.50815752 80.4976621 -11.41455078 71.28369141 C-11.41484283 70.52203674 -11.41513489 69.76038208 -11.41543579 68.97564697 C-11.41405031 66.4758334 -11.39852628 63.97632356 -11.3828125 61.4765625 C-11.37907958 59.7363603 -11.37623393 57.99615599 -11.37423706 56.25595093 C-11.36662254 51.68896624 -11.34699287 47.12210995 -11.3248291 42.55517578 C-11.3043236 37.8896661 -11.2952253 33.22413556 -11.28515625 28.55859375 C-11.26374484 19.41400627 -11.22963533 10.26951384 -11.1875 1.125 C-7.40771291 0.4690335 -3.83930579 -0.01190482 0 0 Z " fill="#FBFCFC" transform="translate(22.1875,14.875)"/>
<path d="M0 0 C1.29442017 0.00616333 1.29442017 0.00616333 2.61499023 0.01245117 C4.01974609 0.01535156 4.01974609 0.01535156 5.45288086 0.01831055 C6.43321289 0.03055664 7.41354492 0.04280273 8.42358398 0.05541992 C9.4077832 0.05606445 10.39198242 0.05670898 11.40600586 0.05737305 C18.72090866 0.1027446 18.72090866 0.1027446 19.86108398 1.24291992 C20.13943167 4.71425289 20.092846 8.19924496 20.11108398 11.68041992 C20.13170898 12.66075195 20.15233398 13.64108398 20.17358398 14.65112305 C20.17874023 15.58762695 20.18389648 16.52413086 20.18920898 17.48901367 C20.20322754 18.78343384 20.20322754 18.78343384 20.2175293 20.10400391 C20.04108887 21.16276733 20.04108887 21.16276733 19.86108398 22.24291992 C16.7489166 24.31769818 16.02047891 24.4981458 12.48217773 24.50854492 C11.64364258 24.51112305 10.80510742 24.51370117 9.94116211 24.51635742 C9.06911133 24.50862305 8.19706055 24.50088867 7.29858398 24.49291992 C5.98470703 24.50452148 5.98470703 24.50452148 4.64428711 24.51635742 C3.80704102 24.5137793 2.96979492 24.51120117 2.10717773 24.50854492 C1.34074951 24.50628906 0.57432129 24.5040332 -0.21533203 24.50170898 C-2.13891602 24.24291992 -2.13891602 24.24291992 -4.13891602 22.24291992 C-4.39770508 20.21166992 -4.39770508 20.21166992 -4.40454102 17.74291992 C-4.40711914 16.85604492 -4.40969727 15.96916992 -4.41235352 15.05541992 C-4.40075195 13.66323242 -4.40075195 13.66323242 -4.38891602 12.24291992 C-4.39665039 11.31479492 -4.40438477 10.38666992 -4.41235352 9.43041992 C-4.40977539 8.54354492 -4.40719727 7.65666992 -4.40454102 6.74291992 C-4.40228516 5.92823242 -4.4000293 5.11354492 -4.39770508 4.27416992 C-4.01750071 1.28992433 -2.96903692 0.33719801 0 0 Z " fill="#FAFCFC" transform="translate(111.138916015625,15.757080078125)"/>
<path d="M0 0 C0.886875 -0.00257812 1.77375 -0.00515625 2.6875 -0.0078125 C4.0796875 0.00378906 4.0796875 0.00378906 5.5 0.015625 C6.428125 0.00789063 7.35625 0.00015625 8.3125 -0.0078125 C9.6428125 -0.00394531 9.6428125 -0.00394531 11 0 C11.8146875 0.00225586 12.629375 0.00451172 13.46875 0.00683594 C15.5 0.265625 15.5 0.265625 17.5 2.265625 C17.75878906 4.296875 17.75878906 4.296875 17.765625 6.765625 C17.76949219 8.0959375 17.76949219 8.0959375 17.7734375 9.453125 C17.76570313 10.38125 17.75796875 11.309375 17.75 12.265625 C17.75773437 13.19375 17.76546875 14.121875 17.7734375 15.078125 C17.77085937 15.965 17.76828125 16.851875 17.765625 17.765625 C17.76336914 18.5803125 17.76111328 19.395 17.75878906 20.234375 C17.5 22.265625 17.5 22.265625 15.5 24.265625 C13.46875 24.52441406 13.46875 24.52441406 11 24.53125 C10.113125 24.53382812 9.22625 24.53640625 8.3125 24.5390625 C7.384375 24.53132813 6.45625 24.52359375 5.5 24.515625 C4.1078125 24.52722656 4.1078125 24.52722656 2.6875 24.5390625 C1.3571875 24.53519531 1.3571875 24.53519531 0 24.53125 C-0.8146875 24.52899414 -1.629375 24.52673828 -2.46875 24.52441406 C-4.5 24.265625 -4.5 24.265625 -6.5 22.265625 C-6.75878906 20.234375 -6.75878906 20.234375 -6.765625 17.765625 C-6.76820312 16.87875 -6.77078125 15.991875 -6.7734375 15.078125 C-6.76183594 13.6859375 -6.76183594 13.6859375 -6.75 12.265625 C-6.75773437 11.3375 -6.76546875 10.409375 -6.7734375 9.453125 C-6.77085938 8.56625 -6.76828125 7.679375 -6.765625 6.765625 C-6.76336914 5.9509375 -6.76111328 5.13625 -6.75878906 4.296875 C-6.21708282 0.04499205 -3.6638033 0.01014502 0 0 Z " fill="#FBFCFD" transform="translate(113.5,41.734375)"/>
<path d="M0 0 C2.03125 -0.35644531 2.03125 -0.35644531 4.5 -0.328125 C5.8303125 -0.32039063 5.8303125 -0.32039063 7.1875 -0.3125 C8.115625 -0.291875 9.04375 -0.27125 10 -0.25 C10.928125 -0.24484375 11.85625 -0.2396875 12.8125 -0.234375 C19.69122024 -0.15438988 19.69122024 -0.15438988 22 1 C22 8.26 22 15.52 22 23 C18.34169572 24.82915214 14.02743635 24.22762535 10 24.25 C9.071875 24.270625 8.14375 24.29125 7.1875 24.3125 C5.8571875 24.32023437 5.8571875 24.32023437 4.5 24.328125 C3.6853125 24.3374707 2.870625 24.34681641 2.03125 24.35644531 C1.02578125 24.18000488 1.02578125 24.18000488 0 24 C-2.0331579 20.95026315 -2.2548508 20.31043132 -2.265625 16.875 C-2.26820312 16.08609375 -2.27078125 15.2971875 -2.2734375 14.484375 C-2.26570313 13.66453125 -2.25796875 12.8446875 -2.25 12 C-2.25773437 11.18015625 -2.26546875 10.3603125 -2.2734375 9.515625 C-2.27085938 8.72671875 -2.26828125 7.9378125 -2.265625 7.125 C-2.26336914 6.40570313 -2.26111328 5.68640625 -2.25878906 4.9453125 C-2 3 -2 3 0 0 Z " fill="#FBFCFD" transform="translate(82,42)"/>
<path d="M0 0 C2.03125 -0.37231445 2.03125 -0.37231445 4.5 -0.36328125 C5.386875 -0.36263672 6.27375 -0.36199219 7.1875 -0.36132812 C8.5796875 -0.3371582 8.5796875 -0.3371582 10 -0.3125 C10.928125 -0.31572266 11.85625 -0.31894531 12.8125 -0.32226562 C19.73305861 -0.26694139 19.73305861 -0.26694139 22 2 C22.25878906 4.03125 22.25878906 4.03125 22.265625 6.5 C22.26949219 7.8303125 22.26949219 7.8303125 22.2734375 9.1875 C22.26570313 10.115625 22.25796875 11.04375 22.25 12 C22.25773437 12.928125 22.26546875 13.85625 22.2734375 14.8125 C22.27085937 15.699375 22.26828125 16.58625 22.265625 17.5 C22.26336914 18.3146875 22.26111328 19.129375 22.25878906 19.96875 C22 22 22 22 20 24 C17.96875 24.25878906 17.96875 24.25878906 15.5 24.265625 C14.613125 24.26820312 13.72625 24.27078125 12.8125 24.2734375 C11.884375 24.26570313 10.95625 24.25796875 10 24.25 C8.6078125 24.26160156 8.6078125 24.26160156 7.1875 24.2734375 C5.8571875 24.26957031 5.8571875 24.26957031 4.5 24.265625 C3.6853125 24.26336914 2.870625 24.26111328 2.03125 24.25878906 C0 24 0 24 -2 22 C-2.25878906 20.07641602 -2.25878906 20.07641602 -2.265625 17.75390625 C-2.26820312 16.91666016 -2.27078125 16.07941406 -2.2734375 15.21679688 C-2.26570313 14.34087891 -2.25796875 13.46496094 -2.25 12.5625 C-2.25773437 11.69044922 -2.26546875 10.81839844 -2.2734375 9.91992188 C-2.27085938 9.08138672 -2.26828125 8.24285156 -2.265625 7.37890625 C-2.26336914 6.6113501 -2.26111328 5.84379395 -2.25878906 5.05297852 C-2 3 -2 3 0 0 Z " fill="#FCFDFD" transform="translate(109,68)"/>
<path d="M0 0 C2.13891602 -0.35644531 2.13891602 -0.35644531 4.75390625 -0.328125 C6.15866211 -0.32039062 6.15866211 -0.32039062 7.59179688 -0.3125 C8.57212891 -0.291875 9.55246094 -0.27125 10.5625 -0.25 C12.03879883 -0.24226562 12.03879883 -0.24226562 13.54492188 -0.234375 C20.84613458 -0.15386542 20.84613458 -0.15386542 22 1 C22.25098924 4.47208807 22.18522096 7.9574062 22.1875 11.4375 C22.19974609 12.41783203 22.21199219 13.39816406 22.22460938 14.40820312 C22.22750977 15.81295898 22.22750977 15.81295898 22.23046875 17.24609375 C22.23457764 18.10904053 22.23868652 18.9719873 22.24291992 19.86108398 C22 22 22 22 20 24 C16.87453844 24.44626783 13.7162016 24.32410302 10.5625 24.3125 C9.69044922 24.32861328 8.81839844 24.34472656 7.91992188 24.36132812 C6.66211914 24.36229492 6.66211914 24.36229492 5.37890625 24.36328125 C4.6113501 24.36626221 3.84379395 24.36924316 3.05297852 24.37231445 C0.4220093 23.89517947 -0.44660885 23.15792629 -2 21 C-2.37231445 19.0546875 -2.37231445 19.0546875 -2.36328125 16.875 C-2.36263672 16.08609375 -2.36199219 15.2971875 -2.36132812 14.484375 C-2.34521484 13.66453125 -2.32910156 12.8446875 -2.3125 12 C-2.31572266 11.18015625 -2.31894531 10.3603125 -2.32226562 9.515625 C-2.26731366 3.4009705 -2.26731366 3.4009705 0 0 Z " fill="#FBFCFC" transform="translate(82,16)"/>
<path d="M0 0 C0.78890625 -0.00257812 1.5778125 -0.00515625 2.390625 -0.0078125 C3.21046875 -0.00007813 4.0303125 0.00765625 4.875 0.015625 C6.10476562 0.00402344 6.10476562 0.00402344 7.359375 -0.0078125 C8.14828125 -0.00523438 8.9371875 -0.00265625 9.75 0 C10.46929687 0.00225586 11.18859375 0.00451172 11.9296875 0.00683594 C13.875 0.265625 13.875 0.265625 16.875 2.265625 C17.24731445 4.296875 17.24731445 4.296875 17.23828125 6.765625 C17.23763672 7.6525 17.23699219 8.539375 17.23632812 9.453125 C17.22021484 10.38125 17.20410156 11.309375 17.1875 12.265625 C17.19233398 13.6578125 17.19233398 13.6578125 17.19726562 15.078125 C17.14194139 21.99868361 17.14194139 21.99868361 14.875 24.265625 C12.84375 24.52441406 12.84375 24.52441406 10.375 24.53125 C9.488125 24.53382812 8.60125 24.53640625 7.6875 24.5390625 C6.759375 24.53132813 5.83125 24.52359375 4.875 24.515625 C3.4828125 24.52722656 3.4828125 24.52722656 2.0625 24.5390625 C0.7321875 24.53519531 0.7321875 24.53519531 -0.625 24.53125 C-1.4396875 24.52899414 -2.254375 24.52673828 -3.09375 24.52441406 C-5.125 24.265625 -5.125 24.265625 -7.125 22.265625 C-7.57304715 18.9520674 -7.44909862 15.60602637 -7.4375 12.265625 C-7.45361328 11.3375 -7.46972656 10.409375 -7.48632812 9.453125 C-7.48697266 8.56625 -7.48761719 7.679375 -7.48828125 6.765625 C-7.49126221 5.9509375 -7.49424316 5.13625 -7.49731445 4.296875 C-7.3130188 3.29140625 -7.3130188 3.29140625 -7.125 2.265625 C-4.07526315 0.2324671 -3.43543132 0.0107742 0 0 Z " fill="#FBFCFC" transform="translate(114.125,93.734375)"/>
<path d="M0 0 C0.83853516 0.00064453 1.67707031 0.00128906 2.54101562 0.00195312 C3.8490918 0.02612305 3.8490918 0.02612305 5.18359375 0.05078125 C6.05951172 0.04755859 6.93542969 0.04433594 7.83789062 0.04101562 C14.35400694 0.09619444 14.35400694 0.09619444 16.62109375 2.36328125 C16.86401367 4.50219727 16.86401367 4.50219727 16.8515625 7.1171875 C16.84962891 8.05369141 16.84769531 8.99019531 16.84570312 9.95507812 C16.82733398 11.42557617 16.82733398 11.42557617 16.80859375 12.92578125 C16.80794922 13.90998047 16.80730469 14.89417969 16.80664062 15.90820312 C16.76126907 23.22310593 16.76126907 23.22310593 15.62109375 24.36328125 C12.14976078 24.64162893 8.66476871 24.59504327 5.18359375 24.61328125 C3.7130957 24.64421875 3.7130957 24.64421875 2.21289062 24.67578125 C1.27638672 24.6809375 0.33988281 24.68609375 -0.625 24.69140625 C-1.48794678 24.70075195 -2.35089355 24.71009766 -3.23999023 24.71972656 C-4.29875366 24.54328613 -4.29875366 24.54328613 -5.37890625 24.36328125 C-8.09272708 20.29255 -7.71018266 17.14000013 -7.69140625 12.36328125 C-7.70751953 11.5434375 -7.72363281 10.72359375 -7.74023438 9.87890625 C-7.74087891 9.09 -7.74152344 8.30109375 -7.7421875 7.48828125 C-7.74516846 6.76898438 -7.74814941 6.0496875 -7.7512207 5.30859375 C-6.90484809 0.88636624 -4.14395325 -0.01609387 0 0 Z " fill="#FBFCFC" transform="translate(87.37890625,67.63671875)"/>
<path d="M0 0 C1.62200515 1.62200515 1.1299075 3.42023031 1.1328125 5.65625 C1.13474609 7.06583984 1.13474609 7.06583984 1.13671875 8.50390625 C1.13285156 9.49261719 1.12898438 10.48132813 1.125 11.5 C1.13080078 12.98306641 1.13080078 12.98306641 1.13671875 14.49609375 C1.13542969 15.43582031 1.13414063 16.37554687 1.1328125 17.34375 C1.13168457 18.21193359 1.13055664 19.08011719 1.12939453 19.97460938 C1 22 1 22 0 23 C-1.56172745 23.08685603 -3.12729344 23.10702219 -4.69140625 23.09765625 C-5.63564453 23.09443359 -6.57988281 23.09121094 -7.55273438 23.08789062 C-9.04256836 23.07532227 -9.04256836 23.07532227 -10.5625 23.0625 C-11.55958984 23.05798828 -12.55667969 23.05347656 -13.58398438 23.04882812 C-16.05604849 23.03700007 -18.52799518 23.02051849 -21 23 C-22.77985509 17.74908651 -23.14857733 13.73569998 -22.6875 8.125 C-22.63916016 7.44953125 -22.59082031 6.7740625 -22.54101562 6.078125 C-22.15014143 1.15014143 -22.15014143 1.15014143 -21 0 C-18.59711126 -0.26665843 -16.22293185 -0.46963567 -13.8125 -0.625 C-12.49894531 -0.72039062 -11.18539062 -0.81578125 -9.83203125 -0.9140625 C-6.3568462 -0.99199733 -3.38055993 -0.76947495 0 0 Z " fill="#FCFDFD" transform="translate(103,95)"/>
<path d="M0 0 C0.33 0.66 0.66 1.32 1 2 C1.66 2 2.32 2 3 2 C3.00586624 2.94245575 3.01173248 3.8849115 3.01777649 4.85592651 C3.07517989 13.77095868 3.14803239 22.68575103 3.23571491 31.60053825 C3.28029672 36.18289276 3.31957918 40.76516086 3.34643555 45.34765625 C3.37259081 49.77635628 3.41307813 54.20472156 3.46318626 58.63321304 C3.47977278 60.31630388 3.49133791 61.99945251 3.49761391 63.68261337 C3.54450062 75.10918702 3.64035465 85.86227322 11.109375 95.1796875 C14.03189248 97.99351632 17.36424558 99.8675634 20.92578125 101.7734375 C23 103 23 103 24 105 C16.99162937 104.74970105 13.07102074 102.82954356 8 98 C-1.65862438 87.62188441 -1.46391372 75.99891063 -1.51171875 62.62109375 C-1.52858516 60.84032468 -1.54673801 59.05956736 -1.56611633 57.27882385 C-1.61340963 52.61827267 -1.64335223 47.95776921 -1.66955566 43.29705811 C-1.69946605 38.53062522 -1.74596013 33.7643564 -1.79101562 28.99804688 C-1.87681326 19.66545077 -1.94426267 10.33282069 -2 1 C-1.34 0.67 -0.68 0.34 0 0 Z " fill="#F5F8F7" transform="translate(5,14)"/>
<path d="M0 0 C0.99 0.33 1.98 0.66 3 1 C3.2475 1.969375 3.495 2.93875 3.75 3.9375 C4.36875 5.4534375 4.36875 5.4534375 5 7 C8.52451159 8.46022435 8.52451159 8.46022435 12 9 C12 9.66 12 10.32 12 11 C10.3603125 11.556875 10.3603125 11.556875 8.6875 12.125 C5.45411511 13.4798799 5.01423545 13.97658038 3.0625 17.1875 C2.5365625 18.5796875 2.5365625 18.5796875 2 20 C1.34 20 0.68 20 0 20 C-0.350625 19.071875 -0.70125 18.14375 -1.0625 17.1875 C-3.59919019 13.0142355 -5.4710174 12.53814504 -10 11 C-8.23596638 9.05027863 -6.78051427 7.88222717 -4.4375 6.625 C-1.55761861 4.70507907 -0.96950297 3.26105543 0 0 Z " fill="#F7F9FA" transform="translate(136,3)"/>
</svg>
